<svg width="549" height="452" viewBox="0 0 549 452" fill="none" xmlns="http://www.w3.org/2000/svg">
<path d="M160.212 46.7999C160.012 46.9999 150.112 48.3999 138.312 49.7999C126.512 51.1999 111.912 53.0999 105.812 53.9999C99.8125 54.7999 89.2125 55.8999 82.4125 56.3999C75.6125 56.8999 69.6125 57.6999 69.1125 58.1999C68.4125 58.8999 68.4125 70.1999 69.3125 92.5999C70.5125 127.3 70.7125 173.3 69.7125 189.1L69.2125 198.4L63.0125 198.5C59.6125 198.5 54.8125 198.9 52.3125 199.2L47.8125 199.9V271.6C47.8125 337.7 47.9125 343.3 49.4125 342.9C51.2125 342.3 87.2125 361.3 95.7125 367.2C103.812 372.9 113.412 377.1 121.012 378.4C127.412 379.4 128.912 379.3 135.512 377.5C143.912 375.2 156.812 372.5 177.212 368.9C185.112 367.5 198.812 364.4 207.712 361.9C216.512 359.5 228.112 356.6 233.312 355.4C238.512 354.3 246.012 352.4 249.812 351.3C253.712 350.2 257.512 349 258.412 348.8C259.712 348.4 260.112 349.4 260.512 353.4C260.812 356.3 261.612 359.2 262.412 359.9C263.212 360.6 270.612 364.3 278.812 367.9C287.112 371.6 298.612 377 304.412 379.9C310.212 382.9 322.112 388.3 330.912 391.9C348.612 399.4 356.012 402.9 358.512 405.1C359.912 406.3 361.412 406.4 367.512 405.5C371.512 404.9 381.612 404 389.812 403.4C398.112 402.9 417.012 400.4 431.812 398C462.612 392.9 485.512 389.6 492.812 389.2L497.812 388.9L497.312 384.4C496.712 378.9 496.712 382.1 497.712 300.4C498.412 237.4 499.012 226.4 501.412 226.4C502.012 226.4 501.812 225.8 501.112 225.1C500.412 224.4 496.512 223.2 492.412 222.5C488.312 221.8 479.812 219.4 473.412 217.3C467.012 215.1 450.812 210.6 437.312 207.3L412.812 201.2L388.812 201.7C375.612 202 358.712 203 351.312 203.8C343.912 204.7 321.712 205.8 301.912 206.3C265.312 207.3 253.512 208.4 279.412 208.4C289.012 208.4 295.412 208.9 298.512 209.8C301.112 210.6 307.612 211.5 313.012 211.8C320.212 212.2 321.612 212.1 318.312 211.4C315.812 210.9 311.312 210.5 308.312 210.4C305.312 210.3 301.912 209.9 300.812 209.5C299.812 209.1 307.312 208.4 317.812 208C328.312 207.6 340.012 207 343.912 206.6C350.212 205.9 351.612 206.1 356.412 208.3C361.712 210.6 361.812 210.7 359.012 211.5C357.312 211.9 355.012 211.8 353.512 211.2C348.812 209.3 341.912 207.4 342.712 208.1C344.112 209.5 358.312 214.2 358.312 213.3C358.312 211.4 366.112 212.6 375.812 215.9C381.312 217.8 386.712 219.4 387.812 219.3C389.212 219.3 389.412 219.1 388.312 218.7C387.512 218.4 383.012 216.8 378.512 215.1C372.712 213.1 370.512 211.9 371.512 211.3C372.212 210.8 373.812 210.4 375.012 210.4C376.212 210.4 377.412 210 377.712 209.6C378.012 209.1 375.512 209.1 372.112 209.6C366.912 210.3 365.112 210.1 359.912 208.2L353.812 205.9L360.812 205.1C366.112 204.5 368.612 204.7 371.512 205.9C376.212 207.7 380.112 207.8 375.912 206L373.112 204.7L375.412 204.1C376.712 203.7 386.212 203.4 396.412 203.4C410.512 203.4 416.112 203.8 419.312 204.9C421.712 205.7 430.612 208 439.212 210C447.812 212 461.812 215.9 470.312 218.7C478.812 221.4 488.312 224.2 491.312 224.9L496.812 226L490.312 227.2C486.712 227.9 479.712 228.7 474.812 229.1L465.712 229.7L459.012 225.6C455.312 223.4 452.312 221.9 452.312 222.3C452.312 222.7 454.912 224.5 458.012 226.4L463.812 229.9L460.612 230.2C458.812 230.4 455.512 229.6 453.112 228.4C449.212 226.5 449.012 226.5 451.012 228.2L453.212 230.1L448.612 230.8C440.512 231.9 436.012 231.4 426.312 228.5C421.112 227 415.912 225.4 414.812 225C413.212 224.4 413.112 224.4 414.312 225.3C415.112 225.9 418.612 227.3 422.112 228.5C425.512 229.6 428.312 230.7 428.312 231C428.312 232.1 412.312 227.4 403.412 223.6L399.812 222.1L402.812 220.8C405.812 219.4 405.812 219.4 401.812 220.1C399.612 220.6 394.012 220.8 389.312 220.8C384.112 220.7 381.612 220.9 382.812 221.4C383.912 221.9 387.612 222.3 391.012 222.3C396.012 222.4 399.812 223.4 409.012 227C426.212 233.7 425.512 233.3 419.212 233.3C415.112 233.4 410.312 232.3 401.712 229.4C395.112 227.1 388.912 225.1 387.812 224.8L385.812 224.3L387.812 225.5C388.912 226.2 394.812 228.5 400.812 230.5C413.712 234.8 414.012 234.6 389.812 236.8C377.112 238 374.112 238 370.312 236.8C364.712 235.1 363.912 235.1 367.812 236.9C370.412 238.1 370.512 238.3 369.012 238.9C365.912 240.2 319.312 227.8 308.812 222.9C291.812 215.1 279.812 211 272.412 210.6C266.512 210.3 265.012 209.8 264.612 208.4C264.312 207.4 262.312 206.1 260.012 205.4L255.812 204.1L262.312 202.6C273.912 200 274.512 199.7 273.612 195.5C273.112 193.5 272.912 187.8 272.912 182.9C273.012 177.9 273.412 148 273.812 116.3L274.512 58.5999L267.712 57.4999C259.412 56.1999 216.512 50.0999 199.812 47.9999C189.212 46.5999 161.312 45.7999 160.212 46.7999ZM188.812 48.2999C193.312 48.7999 194.212 49.1999 192.312 49.6999C184.812 51.5999 167.412 55.3999 165.712 55.4999C164.312 55.5999 164.212 55.6999 165.412 56.0999C166.212 56.2999 172.312 55.2999 178.912 53.8999C192.412 50.9999 204.212 49.7999 209.812 50.7999C211.812 51.1999 213.312 51.6999 213.212 51.8999C213.012 51.9999 206.712 52.9999 199.412 53.8999C192.012 54.7999 185.012 55.9999 183.912 56.4999C182.312 57.1999 182.612 57.2999 185.312 56.8999C187.212 56.6999 192.912 55.9999 197.812 55.3999C202.812 54.8999 209.712 53.8999 213.312 53.2999C218.912 52.2999 222.012 52.4999 236.812 54.7999C246.212 56.2999 255.812 57.8999 258.312 58.2999L262.812 59.1999L259.012 59.2999C252.112 59.4999 206.012 64.3999 189.812 66.6999C171.512 69.1999 160.912 69.2999 144.312 66.8999C137.812 65.9999 131.512 65.3999 130.212 65.5999C128.912 65.7999 136.412 67.1999 147.012 68.6999C157.512 70.2999 166.712 71.2999 167.312 70.8999C168.212 70.3999 168.312 71.8999 167.812 76.9999C167.112 82.7999 166.312 84.8999 161.812 91.7999C155.012 102.5 150.812 109.8 152.112 109C152.612 108.7 155.912 103.7 159.312 97.8999C162.712 92.0999 165.912 87.1999 166.312 86.8999C166.812 86.5999 166.912 88.2999 166.612 90.5999C166.212 93.7999 164.012 97.9999 158.412 106.4C151.712 116.4 147.412 124.4 148.812 124.4C149.112 124.4 150.212 122.5 151.412 120.1C154.212 114.6 165.412 97.1999 165.912 97.6999C166.112 97.8999 165.812 103.9 165.312 111C164.112 126.2 163.812 162.9 164.812 169.6C165.512 174.1 165.312 174.7 161.112 180.6C158.612 184.1 156.312 187.6 155.912 188.4C154.812 190.6 158.912 185.5 162.312 180.5C165.112 176.3 165.312 176.2 165.312 178.8C165.312 180.5 163.012 184.7 158.812 190.4C151.612 200.4 148.512 205.9 152.812 200.9C154.212 199.2 157.612 194.7 160.212 190.7L165.112 183.6L165.912 194.2C166.412 200.1 166.612 206.8 166.412 209.1C166.312 211.5 166.712 215 167.312 217C168.812 221.5 168.312 221.9 165.112 218.9C163.112 217.1 160.512 216.2 155.112 215.4C149.012 214.5 122.612 207.8 121.512 206.8C120.312 205.8 123.412 201.1 128.712 195.9C132.112 192.6 133.912 190.6 132.812 191.4C128.912 194.2 123.112 200 121.212 203C119.312 206.1 119.112 206.1 115.312 205.2C113.112 204.6 111.312 203.8 111.312 203.5C111.312 201.9 117.412 193.3 121.512 189C124.012 186.5 125.612 184.4 125.212 184.4C124.012 184.4 114.312 195.5 112.012 199.6C110.112 202.8 107.312 204.7 107.312 202.8C107.312 200.7 115.412 189.5 120.612 184.2C124.912 179.8 125.612 178.9 122.812 181.1C116.912 185.7 113.912 189.2 109.912 195.8C108.012 199 106.312 202 106.112 202.5C105.912 203 100.012 202.5 92.8125 201.4C71.9125 198.3 73.5125 198.8 72.4125 194.7C71.8125 192.7 71.6125 190.7 72.0125 190.1C72.8125 188.9 74.3125 154.4 74.4125 137.4C74.4125 127.3 74.8125 123.3 75.9125 121.4C77.2125 119.2 77.3125 121.2 76.9125 140.9C76.6125 153 76.1125 166.9 75.7125 171.9C75.3125 176.8 75.3125 180.7 75.6125 180.3C76.7125 179.4 78.4125 163.2 78.3125 155.2C78.2125 150.9 78.6125 147.3 79.2125 147C79.9125 146.5 80.2125 150.2 80.2125 158.1C80.2125 164.7 80.5125 170.7 80.8125 171.7C81.2125 172.7 80.2125 175.5 78.3125 178.9C74.1125 186.3 75.1125 185.9 79.9125 178.2C88.8125 164 90.3125 162 90.4125 163.4C90.4125 164.2 90.8125 163.5 91.2125 161.9C91.6125 160.2 91.5125 155.7 90.9125 151.7L90.0125 144.6L106.212 121.2C115.212 108.4 123.412 96.5999 124.512 95.0999C125.612 93.4999 126.312 92.0999 126.112 91.7999C125.812 91.5999 123.012 95.3999 119.712 100.2C116.412 105 108.612 116.2 102.312 125.2L90.8125 141.6L90.3125 137.2C89.7125 133.1 89.7125 133.2 89.3125 139.4C89.0125 143 89.1125 149 89.4125 152.9C89.9125 159.7 89.8125 160.1 86.1125 165.9L82.3125 171.9V164.1C82.3125 157 82.6125 155.9 85.4125 151.8C87.1125 149.3 88.3125 147 88.0125 146.8C87.7125 146.5 86.5125 148 85.2125 150.1L82.8125 153.9L82.5125 148.1L82.2125 142.3L93.6125 125.1C99.9125 115.6 108.112 103.9 111.712 98.9999C115.412 94.1999 118.212 89.9999 118.012 89.7999C117.412 89.1999 102.212 109.9 91.8125 125.5L82.3125 139.8V134.5C82.3125 129.4 82.8125 128.4 90.7125 116.5C95.3125 109.6 101.412 100.6 104.212 96.5999C107.012 92.6999 109.212 89.3999 108.912 89.3999C108.312 89.3999 91.2125 112.9 86.4125 120.3L82.3125 126.7V120.4C82.3125 108.6 81.0125 115.2 80.4125 130.1C80.3125 130.8 79.9125 131.4 79.3125 131.4C77.9125 131.4 78.0125 115.8 79.4125 113.2C80.3125 111.5 80.7125 111.4 81.5125 112.5C82.2125 113.5 82.3125 113.3 81.8125 111.7C81.1125 109.2 88.6125 97.5999 99.0125 85.0999C102.612 80.8999 105.212 77.3999 105.012 77.3999C103.912 77.3999 89.3125 95.5999 84.2125 103.3L78.8125 111.4L78.0125 108.4C77.4125 105.9 78.0125 103.8 82.2125 95.5999C85.0125 90.2999 89.3125 82.9999 91.9125 79.4999C94.4125 75.9999 96.0125 73.4999 95.4125 73.7999C93.6125 74.9999 85.7125 86.4999 81.5125 94.1999L77.6125 101.6L76.9125 97.9999C76.5125 95.9999 76.5125 93.9999 76.8125 93.4999C77.1125 92.9999 77.0125 92.3999 76.5125 92.1999C76.1125 92.0999 75.0125 88.9999 74.2125 85.3999C72.7125 78.8999 72.7125 78.8999 75.6125 72.4999C77.1125 68.9999 78.2125 65.9999 78.0125 65.7999C77.8125 65.4999 76.6125 67.6999 75.3125 70.5999C72.8125 76.4999 72.3125 76.0999 70.3125 66.5999C69.4125 62.3999 69.3125 59.9999 70.0125 59.2999C70.6125 58.6999 74.7125 58.9999 82.0125 60.2999C88.1125 61.3999 96.5125 62.5999 100.612 62.9999L108.212 63.6999L107.612 68.3999C107.312 71.0999 107.412 76.0999 107.712 79.6999C108.512 86.9999 109.312 87.6999 118.312 88.8999C124.012 89.5999 121.612 87.8999 115.612 86.8999C113.312 86.5999 111.012 85.6999 110.512 85.0999C109.312 83.4999 108.112 69.9999 108.912 66.8999C109.512 64.5999 110.012 64.3999 115.712 64.3999C120.012 64.3999 121.412 64.0999 120.312 63.3999C119.212 62.6999 120.412 62.3999 124.312 62.2999C127.312 62.2999 130.912 61.7999 132.312 61.3999C133.712 60.8999 130.912 60.7999 125.812 61.1999C114.412 62.0999 104.512 61.7999 91.8125 60.2999C79.5125 58.8999 76.3125 57.4999 85.3125 57.3999C88.9125 57.3999 94.5125 56.8999 97.8125 56.3999C101.112 55.8999 114.212 54.2999 126.812 52.7999C139.512 51.3999 154.512 49.6999 160.312 48.9999C172.312 47.4999 180.212 47.2999 188.812 48.2999ZM270.912 76.0999C271.812 91.3999 271.912 129.7 271.112 176.4L270.812 198.9L262.812 199C256.612 199 252.612 199.8 245.312 202.2C235.812 205.3 216.612 209.7 215.412 208.9C215.012 208.7 212.612 209 209.912 209.6C204.412 210.7 203.712 210.4 205.312 207.4C205.912 206.2 206.312 205 206.012 204.8C205.812 204.5 204.812 205.9 203.912 207.7C202.712 210.4 201.612 211.3 199.112 211.7C197.312 211.9 195.712 212.1 195.612 212C195.512 211.9 197.112 207.3 199.312 201.8C201.512 196.4 203.212 191.2 203.212 190.4C203.212 189.6 201.212 194 198.812 200.3C194.312 211.8 193.312 213.4 190.112 213.4C187.812 213.4 187.912 213 190.312 205.9C191.412 202.6 192.212 199.6 192.012 199C191.812 198.5 190.412 201.6 188.912 206C186.212 213.7 185.012 215.4 182.712 215.4C181.912 215.4 182.012 214.2 183.012 211.3C183.712 209 184.212 206.9 183.912 206.7C183.712 206.5 182.812 208.5 181.912 211.1C180.412 215.5 179.812 216.2 175.412 218.1L170.512 220.1L168.812 207C167.012 193.6 167.012 184.2 169.212 126.5L169.812 110L174.412 108.9C179.912 107.5 184.712 105 179.812 106C178.212 106.4 175.812 107.1 174.512 107.5C170.112 109.2 169.312 108.7 169.312 104.4C169.312 101.3 169.712 100.4 171.112 100.4C172.512 100.3 172.612 100.2 171.312 99.4999C170.112 98.6999 169.712 95.7999 169.512 84.6999L169.212 70.8999L181.012 69.1999C198.412 66.6999 255.012 60.8999 265.912 60.4999L270.012 60.3999L270.912 76.0999ZM75.3125 107.8C74.6125 108.5 74.3125 106.2 74.4125 100.8L74.6125 92.8999L75.4125 99.7999C76.0125 104.4 76.0125 107.1 75.3125 107.8ZM75.3125 118.8C74.5125 119.6 74.3125 118.8 74.7125 115.9C75.5125 109 75.6125 108.8 76.0125 113.3C76.3125 115.7 75.9125 118.2 75.3125 118.8ZM80.5125 138.6C80.0125 145.6 78.6125 147 78.9125 140.2C79.1125 133.5 79.1125 133.4 80.1125 133.4C80.5125 133.4 80.6125 135.8 80.5125 138.6ZM70.1125 200.8C71.6125 201.5 76.4125 202.7 80.8125 203.4C91.6125 205 92.5125 205.7 86.8125 207.8C81.3125 210 78.4125 209.6 64.4125 205.5C53.3125 202.2 47.5125 201.4 55.7125 204.3C61.3125 206.2 62.0125 207.3 60.2125 210.6C59.5125 211.9 57.2125 217.6 55.2125 223.4L51.4125 233.9V228.9C51.4125 226.1 52.5125 220.1 53.8125 215.5C55.2125 210.8 56.1125 206.9 55.9125 206.6C55.6125 206.4 54.7125 209 53.7125 212.3C51.5125 220.4 49.9125 221.4 50.6125 214.3C50.9125 211.3 51.4125 207.8 51.8125 206.4C52.3125 204.4 52.1125 204.5 51.0125 206.9L49.6125 209.9L49.1125 205.9C48.8125 203.7 48.8125 201.7 49.0125 201.4C49.3125 201.1 53.4125 200.6 58.1125 200.3C62.9125 200 66.9125 199.7 67.1125 199.6C67.3125 199.5 68.6125 200 70.1125 200.8ZM256.312 207C256.312 207.2 255.112 207.4 253.712 207.4C252.312 207.4 251.412 207 251.712 206.5C252.312 205.7 256.312 206.1 256.312 207ZM104.312 208C108.412 208.8 111.912 209.7 112.112 209.8C112.512 210.3 101.312 213.2 96.1125 213.9C92.8125 214.4 89.9125 214.1 86.2125 212.9L80.9125 211.1L84.9125 209.9C87.1125 209.3 89.8125 208.2 90.8125 207.6C93.5125 206.1 95.5125 206.1 104.312 208ZM249.812 207.3C248.812 208.1 240.312 209.5 240.312 208.8C240.312 208.3 246.412 206.6 248.812 206.5C249.912 206.4 250.312 206.8 249.812 207.3ZM66.7125 208.1C67.1125 208.5 69.3125 209.3 71.6125 209.9C73.9125 210.5 86.3125 214.7 99.1125 219.4L122.412 227.8L121.612 241.3C121.212 248.8 120.912 258.5 121.012 262.9C121.012 267.3 121.412 292 121.812 317.9C122.212 353.5 122.712 366.2 123.812 370.4C124.612 373.4 125.112 376 124.912 376.1C124.412 376.6 110.512 371.5 106.112 369.3L102.512 367.4L104.212 361.7C105.912 356.3 109.412 349.7 113.212 344.8C114.112 343.7 113.012 344.6 110.912 346.8C106.712 351.2 102.412 359.4 102.112 363.7C101.812 367 100.912 367.1 96.6125 364.2C92.8125 361.6 92.9125 361.9 94.9125 353.4C96.1125 348.2 97.2125 346 100.612 342.5C104.712 338.2 104.012 337.7 99.5125 341.8L97.1125 343.9L99.2125 338.6C102.412 330.5 105.812 324.2 109.912 318.8C112.812 315 113.012 314.5 110.912 316.4C104.612 322.1 93.5125 345.7 92.7125 354.8C92.5125 357.5 92.0125 360 91.7125 360.3C91.3125 360.6 91.3125 358.8 91.5125 356.1C91.8125 353.5 91.7125 351.4 91.3125 351.4C89.9125 351.4 96.2125 334.2 102.012 322.3C106.312 313.3 108.112 310.5 109.312 310.9C110.512 311.4 110.512 311.3 109.612 310.3C108.712 309.4 108.812 308.2 110.412 305.3C111.512 303.1 112.112 301.4 111.812 301.4C111.612 301.4 110.612 302.8 109.812 304.4C108.912 306.2 107.812 307.2 107.112 306.8C106.312 306.3 106.212 306.7 106.612 307.8C107.312 309.6 105.812 313.4 104.412 313.4C103.912 313.4 102.512 312.6 101.312 311.6L99.1125 309.8L106.312 295.5C110.212 287.6 113.312 281 113.112 280.8C112.412 280.2 93.4125 318.5 90.4125 326.4C88.9125 330.5 87.2125 333.9 86.7125 334.1C86.1125 334.3 84.9125 333.8 83.9125 333.1C82.2125 331.8 82.3125 331.5 85.3125 326.5C87.1125 323.7 88.3125 321.1 88.1125 320.9C87.9125 320.6 86.6125 322.2 85.4125 324.5C84.1125 326.7 82.9125 328.3 82.7125 328.1C82.1125 327.5 93.6125 302.9 104.412 281.9C109.412 272 113.112 264.3 112.512 264.9C109.412 267.9 81.4125 324.3 79.7125 331C79.2125 332.9 78.8125 333.2 78.2125 332.2C77.6125 331.3 77.3125 331.9 77.3125 333.9C77.3125 335.6 76.7125 337.8 76.0125 338.9C75.2125 340 73.8125 342.2 72.8125 343.9L71.1125 346.9L73.8125 343.9L76.5125 340.9L75.9125 343.7C75.4125 345.6 75.6125 346.3 76.3125 345.9C76.9125 345.5 77.3125 346.6 77.3125 348.8C77.3125 350.8 77.1125 352.4 76.9125 352.4C75.2125 352.4 64.3125 346.9 64.3125 346.1C64.3125 345.5 64.0125 345.3 63.7125 345.7C63.2125 346.2 54.0125 342.2 52.5125 340.9C52.3125 340.8 53.9125 337.6 55.9125 334C57.9125 330.3 59.7125 327.4 59.9125 327.6C60.0125 327.8 59.7125 330 59.2125 332.4C58.6125 334.8 58.5125 337.9 58.8125 339.3C59.4125 341.6 59.5125 341.6 60.7125 339.8C61.4125 338.8 64.6125 332.9 67.8125 326.9C74.9125 313.4 76.1125 311.9 72.2125 321.5C68.3125 330.9 64.2125 343.6 64.8125 344.2C65.0125 344.4 65.5125 343.4 65.9125 341.9C66.3125 340.4 66.9125 339.7 67.2125 340.2C67.7125 341.1 82.0125 318.5 83.2125 315C83.8125 312.9 79.7125 319 73.6125 329.4C70.1125 335.2 67.3125 339.4 67.3125 338.8C67.3125 336.5 79.6125 307.7 90.8125 283.9C104.612 254.5 112.512 236.5 112.112 235.2C111.912 234.6 110.712 236.9 109.412 240.1C105.812 248.7 96.4125 269.2 89.6125 282.9C86.4125 289.5 82.3125 298.2 80.5125 302.2C78.7125 306.2 76.5125 310.4 75.5125 311.4C74.6125 312.4 70.7125 319.2 66.8125 326.5C63.0125 333.8 59.7125 339.1 59.5125 338.1C59.0125 335.5 64.0125 318.3 67.6125 310.3C69.5125 306.2 70.8125 302.4 70.6125 301.7C70.2125 300.5 77.9125 283 93.6125 249.9C103.612 228.7 105.112 225.2 103.412 226.9C102.912 227.4 100.712 231.9 98.5125 236.9C96.3125 241.8 89.9125 255.6 84.2125 267.4C70.3125 296.2 68.1125 301.3 64.4125 312.4C60.9125 322.9 52.6125 339.5 50.4125 340.2C49.3125 340.6 49.2125 339.9 49.8125 336.8C50.2125 334.6 50.8125 332.4 51.2125 331.9C51.6125 331.3 52.5125 329 53.2125 326.6C53.8125 324.3 54.7125 322.6 55.2125 322.8C55.6125 323.1 56.5125 321 57.3125 318.1C58.6125 312.7 66.2125 296.9 66.3125 299.2C66.3125 299.9 66.7125 300.3 67.2125 300C67.7125 299.7 67.9125 298.5 67.6125 297.5C67.3125 296.5 67.7125 294.6 68.3125 293.4C69.1125 291.9 69.1125 291.4 68.4125 291.8C67.7125 292.3 67.3125 291.5 67.3125 289.6C67.3125 286.1 73.9125 269.8 86.3125 242.9C91.3125 231.9 95.6125 222.2 95.9125 221.4C96.7125 218.5 80.7125 252 74.2125 266.4C70.7125 274.4 67.5125 281 67.1125 281.2C66.6125 281.4 66.3125 282.2 66.3125 283C66.3125 283.8 64.6125 289.5 62.6125 295.6L58.8125 306.8L58.5125 296.2C58.3125 286.4 58.5125 285 61.3125 278C65.1125 268.4 71.9125 254.7 79.1125 242.1C83.4125 234.7 85.2125 232.4 86.5125 232.7C88.7125 233.3 89.3125 231.5 89.3125 224.6C89.3125 216.5 87.4125 214.1 87.2125 221.9C87.1125 225.2 87.1125 228.8 87.1125 229.9C87.3125 231.5 87.1125 231.6 86.3125 230.4C85.8125 229.6 85.3125 229.2 85.3125 229.6C85.3125 230 83.3125 229.5 80.8125 228.4L76.3125 226.5L72.4125 233.2C68.2125 240.4 64.4125 248.9 60.7125 259.4C59.5125 263 58.4125 265 58.2125 263.9C58.1125 262.8 57.7125 264.4 57.3125 267.4C56.9125 270.4 56.0125 274.9 55.2125 277.4L53.8125 281.9L53.5125 277.8C52.9125 270.3 60.2125 245.3 68.8125 224.9C69.7125 222.7 70.1125 221.3 69.6125 221.9C67.7125 223.9 61.9125 238.1 57.7125 250.9C54.4125 260.8 53.4125 263 53.4125 260.3C53.3125 254.8 58.0125 232.3 61.2125 223.5C62.7125 219.1 63.7125 215.7 63.2125 215.9C61.9125 216.8 57.2125 230.9 55.5125 239.6C54.5125 244.4 53.5125 248.5 53.3125 248.8C53.0125 249 52.7125 246.9 52.6125 244.1C52.2125 234.2 60.7125 207.4 64.2125 207.4C65.2125 207.4 66.3125 207.7 66.7125 208.1ZM260.912 215.6C259.612 230.1 259.212 251 260.312 248.9C261.512 246.6 260.812 279.6 259.212 301.4C258.612 308.8 258.212 322.1 258.312 330.8C258.512 347.5 258.212 348.4 253.812 348.4C251.912 348.3 251.912 348.3 253.612 347C254.912 345.9 255.312 344.1 255.312 338C255.312 333.6 254.912 330.4 254.312 330.4C253.712 330.4 253.312 333.7 253.312 338.1C253.212 345.2 253.012 346.1 250.712 347.7C248.512 349.3 236.312 352.6 235.412 351.8C234.812 351.3 240.712 346.5 242.812 345.8C243.812 345.4 245.412 344.5 246.212 343.7C247.512 342.4 247.812 342.4 249.012 343.9C250.112 345.5 250.212 345.3 249.812 342.4C249.612 340.7 249.212 339 248.912 338.7C248.712 338.4 249.312 335.7 250.412 332.7C251.412 329.6 252.312 325.9 252.212 324.5C252.212 323.1 251.512 324.7 250.712 328.1C249.312 333.7 248.812 334.5 244.512 337.3C242.012 338.9 239.712 340.2 239.612 340C238.812 339.3 245.712 328.2 247.512 327.3C248.812 326.6 249.212 325.9 248.512 325.5C247.812 325.1 248.512 321.9 250.812 315.9C252.712 310.9 254.212 306.2 254.212 305.4C254.212 304.6 253.312 306.4 252.212 309.4C251.212 312.4 248.912 318.1 247.212 322.1C244.212 329 243.712 329.6 235.712 334.9C231.112 337.9 226.612 340.7 225.812 341C224.912 341.4 226.512 338.1 229.312 333.5C236.812 321.4 245.412 303.7 251.712 287.2C254.812 279.2 257.312 272 257.312 271.2C257.212 270.5 255.312 275.1 252.912 281.4C246.912 297.1 242.012 308.3 236.512 318.7C232.112 326.9 231.312 327.8 223.512 333.1C219.012 336.1 215.012 338.4 214.612 338.1C214.312 337.7 216.912 333.1 220.312 327.8C226.212 318.7 234.312 303.5 239.412 291.9C242.412 285 249.312 264.5 249.312 262.5C249.312 261.6 247.212 266.9 244.812 274.3C239.012 291.4 228.712 312.8 224.212 317.1C218.912 322 202.012 334.4 201.212 333.9C200.812 333.6 200.012 334.1 199.312 334.9C198.612 335.7 198.512 336.4 199.012 336.4C200.312 336.4 213.712 327.2 219.712 322.1C222.412 319.9 224.412 318.5 224.212 319.1C224.012 319.6 220.712 325 216.912 331.1C210.612 341.2 209.512 342.4 203.712 345.9C196.412 350.1 194.912 351.9 201.912 348C207.212 345 207.712 344.9 206.712 346.6C206.412 347.3 207.112 346.7 208.412 345.3C211.012 342.4 229.812 329.6 229.212 331.1C229.012 331.7 227.012 334.8 224.912 338C221.312 343.6 220.212 344.5 209.412 350.1C193.412 358.6 191.212 360.8 206.012 353.4C212.812 350.1 218.512 347.4 218.812 347.4C219.112 347.4 219.912 347 220.612 346.4C222.512 344.7 241.312 332.6 241.312 333C241.312 333.2 239.912 335.6 238.312 338.3C235.712 342.4 233.612 344.2 225.512 348.8C220.212 351.9 214.712 355 213.312 355.8C210.212 357.6 182.512 364.4 163.812 367.9C148.812 370.7 130.912 375 128.312 376.4C126.912 377.2 126.712 376.3 126.912 368.6C127.012 363.8 126.712 354.9 126.212 348.9C125.012 334.8 123.112 235.9 123.912 231.7C124.512 228.7 124.812 228.5 131.112 227.4C134.812 226.8 140.012 226 142.812 225.7L147.712 225.1L144.212 230C140.012 235.8 139.012 237.4 139.712 237.4C140.012 237.4 142.012 234.8 144.312 231.6C146.612 228.5 149.312 225.6 150.312 225.2C151.312 224.8 159.512 224 168.512 223.3C178.412 222.5 183.812 221.7 182.312 221.3C180.912 220.9 180.112 220.6 180.412 220.5C180.712 220.4 185.112 219.5 190.212 218.4C195.412 217.3 200.012 216.7 200.712 217.1C201.312 217.5 198.012 218.6 193.312 219.6C186.112 221.1 185.612 221.3 190.412 220.9C196.212 220.4 219.712 216.2 227.012 214.3C231.812 213 256.812 208.6 259.712 208.5C261.412 208.4 261.512 209 260.912 215.6ZM133.812 214.9C147.612 220 151.312 221.6 151.312 222.6C151.312 224.3 144.712 223.3 138.912 220.5C131.912 217.3 118.812 212.4 117.012 212.4C116.312 212.5 119.612 214 124.312 215.8C129.012 217.6 135.112 220.2 137.812 221.4L142.812 223.8L135.312 225.1C131.212 225.8 126.912 226.3 125.812 226C120.912 225 112.112 222.3 103.912 219.3L94.9125 216.1L101.912 214.4C105.712 213.4 109.912 212.2 111.312 211.6C115.012 209.9 123.612 211.2 133.812 214.9ZM223.812 212.4C224.212 213 223.212 213.4 221.612 213.3C219.112 213.3 219.012 213.2 220.812 212.4C221.912 211.9 222.912 211.5 223.012 211.5C223.112 211.4 223.512 211.8 223.812 212.4ZM285.312 218.1C294.412 221.1 306.012 225.2 311.212 227.1C316.412 229 324.312 231.2 328.712 232C333.212 232.8 342.712 235 349.812 236.8L362.812 240.1L363.112 249.5C363.312 254.7 363.012 269 362.412 281.4C361.812 293.8 361.012 319.1 360.712 337.6C360.312 356.2 359.612 371.4 359.212 371.4C358.812 371.4 356.012 373.5 352.912 376C349.812 378.5 346.912 380.2 346.312 379.9C345.812 379.6 345.512 379.9 345.812 380.6C346.512 382.5 340.712 388.5 338.812 387.8C338.012 387.5 337.312 386.8 337.312 386.3C337.312 385.3 343.912 378.5 351.112 372.2C353.912 369.7 356.312 367.3 356.312 367C356.312 366 337.912 382 336.712 384C335.812 385.5 335.212 385.7 333.312 384.8C331.012 383.8 331.412 383.2 343.912 370.9C351.012 363.8 355.212 359.2 353.312 360.8C351.412 362.3 345.212 368.1 339.512 373.7C331.612 381.4 329.012 383.5 328.112 382.6C327.212 381.7 330.212 378.1 341.312 367.2C355.112 353.5 356.112 352.3 348.312 358.7C342.512 363.5 326.312 379.6 326.312 380.5C326.312 381.6 323.612 381.7 322.912 380.5C322.612 380.1 324.012 377.8 326.012 375.5C328.712 372.3 329.812 371.6 330.412 372.6C331.012 373.5 331.312 373.3 331.312 371.8C331.312 370.4 336.112 364.4 343.912 355.8C353.412 345.4 354.312 344.1 347.712 350.9C342.812 355.8 334.612 364.4 329.512 369.8C320.712 379.2 320.112 379.6 317.712 378.6L315.212 377.4L317.512 374.4C319.112 372.2 319.912 371.7 320.512 372.6C321.012 373.5 321.312 373.2 321.312 371.8C321.312 370.7 322.412 368.2 323.812 366.3C327.312 361.6 339.412 349.3 347.612 342.3C351.312 339 354.012 336.4 353.712 336.4C352.412 336.4 343.712 343.9 333.512 353.8C327.812 359.4 323.412 363 323.812 361.9C324.112 360.8 323.812 361 323.212 362.4C322.512 363.8 320.212 367.7 318.112 371C315.012 375.9 313.812 377.1 312.212 376.7C311.212 376.4 310.012 375.8 309.712 375.3C309.112 374.2 321.712 357.5 330.712 347.4C334.412 343.3 341.812 335.7 347.112 330.6C352.412 325.4 355.912 321.7 354.712 322.3C351.412 323.9 322.012 354.6 315.412 363.5C309.712 370.9 309.312 371.3 309.312 368.5C309.312 366.3 310.812 363.7 315.112 358.7C318.312 355 323.812 348.1 327.212 343.5C330.712 338.9 337.412 330.6 342.012 325C349.012 316.6 349.412 316 344.512 321.1C339.012 326.7 317.212 353.3 313.012 359.4C310.112 363.6 311.112 360.5 315.412 352.2C317.612 347.8 319.212 344 319.012 343.8C318.812 343.5 316.012 348.7 312.712 355.1C309.512 361.6 306.212 367.8 305.412 368.9C303.912 370.7 303.912 370.8 305.512 369.5C307.012 368.4 307.312 368.5 307.912 370.9C308.212 372.3 308.312 373.8 308.012 374.1C307.312 374.7 289.312 366.4 289.312 365.5C289.412 365.2 292.212 361.8 295.712 357.9L302.112 351L299.712 357.9C297.212 365.4 296.712 368.9 298.312 367.9C298.912 367.6 299.312 366.6 299.312 365.8C299.312 365 307.512 354.3 317.612 342.1C332.912 323.5 343.812 309.9 352.212 298.9C357.212 292.4 349.212 301.4 341.112 311.5C324.412 332.1 301.112 360.4 300.812 360.4C300.612 360.4 301.312 357.7 302.412 354.4C303.912 350 306.112 346.7 310.712 341.7C320.512 331.1 334.512 314.1 339.312 307.2C344.712 299.3 343.312 300.6 335.112 311C328.212 319.8 310.012 340.3 309.512 339.9C309.312 339.7 309.912 338.2 310.712 336.5C313.812 330.6 312.212 332 308.712 338.4C305.812 343.5 290.912 362.4 289.712 362.4C289.612 362.4 290.312 359.4 291.412 355.7C292.412 351.9 293.312 348.6 293.312 348.2C293.312 347.1 311.112 326 323.912 311.8C342.612 291.2 353.812 278.3 354.212 277.1C354.412 276.4 354.412 276.1 354.112 276.4C353.812 276.7 348.212 283 341.612 290.4C335.112 297.8 324.112 310 317.412 317.4C310.612 324.8 303.412 333 301.412 335.6C299.412 338.2 297.512 340.3 297.112 340.4C296.712 340.4 298.412 335.8 300.912 330.3C305.212 320.7 306.212 319.2 320.212 304C336.912 285.9 349.312 271.7 349.312 270.7C349.312 270.3 348.912 270.4 348.412 271C348.012 271.5 343.412 276.6 338.312 282.4C333.212 288.2 323.812 298.3 317.512 304.9C311.212 311.5 302.212 321.2 297.512 326.4C292.812 331.6 288.012 337 286.712 338.3L284.412 340.7L286.012 335.3C287.712 329.6 293.212 322.5 320.312 291.6C327.212 283.7 333.912 275.8 335.212 274.1C338.912 269.1 329.612 279.2 312.012 299.4C303.112 309.5 294.412 319.4 292.612 321.4L289.412 324.9L291.112 320C293.412 313.6 315.012 287.8 334.712 267.9C342.912 259.7 347.012 255.2 343.712 258C335.312 265.4 316.412 285 305.312 298.1C300.112 304.3 295.712 309.2 295.612 309C295.412 308.8 296.012 306.7 296.812 304.3C297.912 301.1 301.312 296.9 308.612 289.4C314.312 283.6 320.012 277.5 321.312 275.9C325.912 270.4 299.912 295.8 292.312 304.3C288.212 308.9 284.712 312.2 284.512 311.5C284.312 310.9 284.912 308 285.912 305.2C287.212 301.1 290.112 297.1 298.712 287.4C304.912 280.5 312.612 271.7 315.812 267.9C326.312 255.6 318.912 263 304.212 279.5C296.412 288.2 289.912 295.4 289.712 295.4C289.512 295.4 290.412 292.4 291.812 288.7C293.212 285.1 294.212 281.9 294.012 281.7C293.812 281.5 292.112 285.3 290.312 290.1C288.512 295 286.412 299.6 285.712 300.4C284.512 301.6 284.312 300.8 284.312 294.5V287.1L289.712 280.5C292.712 276.9 301.012 267.8 308.112 260.4C315.212 253 320.912 246.7 320.712 246.5C320.112 245.9 302.312 264.3 288.912 279.4C284.412 284.5 283.812 284.4 285.812 278.9C286.312 277.4 286.212 277.3 285.512 278.3C284.712 279.4 284.412 279.3 284.012 277.8C283.712 276.7 283.512 277.4 283.412 279.4C283.212 283.5 280.512 289.7 276.912 293.9L274.412 296.9L274.312 291.1C274.312 287.2 275.012 284 276.312 281.4C278.512 277.1 288.712 264.5 300.712 251.4C305.012 246.7 302.912 248.6 296.212 255.5C289.412 262.5 282.012 270.7 279.812 273.8C277.612 276.8 275.512 279.4 275.112 279.4C274.612 279.4 274.312 277.9 274.312 276C274.312 273.5 275.712 270.5 279.112 265.5C286.812 254.2 296.312 242.6 302.212 237.2C305.312 234.4 306.912 232.6 305.712 233.2C302.012 235.1 286.912 251.8 281.312 260.2C278.312 264.7 275.512 268.3 275.112 268.4C274.612 268.4 274.312 266.8 274.312 264.8C274.312 262 275.812 259.1 281.512 251.1C285.512 245.5 291.112 238 294.112 234.4L299.412 227.9L293.312 234.4C290.012 238 284.412 244.9 281.012 249.7L274.812 258.5L274.512 254.9C274.112 250.6 277.312 244.8 286.012 233.9C289.612 229.4 290.412 228 288.312 229.9C286.512 231.5 282.512 236.5 279.412 240.9C274.712 247.6 273.712 248.5 273.512 246.6C273.212 245 275.312 241.4 280.212 234.8C284.112 229.6 287.112 225.4 286.812 225.4C286.612 225.4 283.612 228.9 280.212 233.1C276.812 237.4 273.912 241.1 273.712 241.3C273.512 241.5 273.112 240.9 272.712 240C272.312 238.9 274.012 235.7 278.312 230.1C281.812 225.5 283.212 223.2 281.412 224.8C279.712 226.4 277.112 229.5 275.712 231.6C274.212 233.6 272.712 235.1 272.212 234.8C271.712 234.5 271.312 235.2 271.312 236.3C271.312 237.4 270.812 238.6 270.212 239C269.412 239.5 269.212 238.7 269.512 236.3C269.812 234.4 269.612 231.7 269.112 230.3C268.412 228.3 268.812 226.8 270.712 223.3C272.112 220.9 273.312 218.4 273.212 217.9C273.212 217.3 272.312 218.7 271.112 220.9C269.212 224.5 268.912 224.7 268.312 222.8C267.812 221.7 267.612 219.1 267.712 217.2C267.812 215.2 267.512 213.8 267.212 214C266.812 214.2 266.212 213.7 265.912 212.8C265.412 211.6 265.712 211.3 267.012 211.9C268.012 212.3 276.212 215.1 285.312 218.1ZM157.612 220.6L159.812 221.9L157.112 222.2C154.912 222.5 146.312 219.1 146.312 218C146.312 217.3 155.412 219.4 157.612 220.6ZM178.312 219.3C177.512 219.8 175.712 220.5 174.312 220.8L171.812 221.5L174.312 220C175.712 219.1 177.512 218.5 178.312 218.5C179.612 218.5 179.612 218.6 178.312 219.3ZM497.412 233.5C496.912 236.5 496.212 261.1 496.012 288.2C495.612 329.7 495.312 337.7 494.012 338.7C492.012 340.4 476.512 362.4 471.312 370.9C465.812 379.9 466.112 379.4 466.512 379.4C466.712 379.4 472.912 370.4 480.312 359.4C487.712 348.4 494.212 339.4 494.612 339.4C495.012 339.4 495.212 350.1 494.912 363.1L494.412 386.9L487.112 387.7C481.212 388.3 452.612 392.1 448.812 392.7C448.212 392.8 447.912 390 448.212 385.2C448.412 379.9 448.112 377.4 447.412 377.4C446.712 377.4 446.312 380.2 446.312 385.4V393.3L443.112 393.8C441.312 394.1 437.112 394.8 433.712 395.4C430.412 396 424.512 396.6 420.712 396.9C416.912 397.2 412.312 397.8 410.512 398.3C407.112 399.3 385.512 401.1 371.212 401.6L363.612 401.9L362.512 384.4C361.212 365.6 362.212 329.3 364.412 313.4C365.012 308.7 365.612 290.6 365.712 272.7L365.812 240.4H368.312C369.712 240.4 373.112 240.1 375.912 239.8L381.012 239.2L380.612 247C380.312 251.4 379.512 255.9 378.712 257.1C377.012 259.9 376.912 261.2 378.612 259.5C379.612 258.5 380.012 259.2 381.012 262.6L382.212 266.9L381.712 261.3C381.112 256 381.312 255.5 384.412 251.9C386.912 249.1 387.212 248.5 385.512 249.5C384.312 250.2 383.312 251.2 383.312 251.6C383.312 252.1 382.912 252.4 382.412 252.4C381.612 252.4 382.012 240.5 382.912 239.6C383.012 239.4 395.212 238 410.012 236.5L436.812 233.8L437.412 251.1C437.712 260.7 438.312 268.8 438.712 269.2C439.112 269.6 439.112 261.7 438.712 251.6L438.012 233.4L445.412 233.2C460.212 232.8 462.212 232.8 461.712 233.5C461.512 233.9 462.012 234.5 462.912 234.8C464.112 235.2 464.412 235 463.912 233.9C463.512 232.9 464.012 232.4 465.312 232.4C468.612 232.4 468.612 232.6 469.012 240.4C469.112 244.5 469.712 249.2 470.112 250.9C470.712 252.8 470.812 250 470.512 242.8L470.012 231.8L481.912 230.4C488.512 229.7 494.712 228.8 495.812 228.4C496.912 228 497.912 227.7 498.012 227.8C498.212 228 497.912 230.5 497.412 233.5ZM80.9125 230.2L84.1125 231.9L78.6125 240.9C75.6125 245.8 69.8125 256.6 65.7125 264.9C58.5125 279.5 58.3125 279.8 58.3125 275.4C58.3125 268.6 64.1125 251.4 70.9125 238C74.7125 230.6 76.1125 228.4 77.2125 228.4C77.5125 228.5 79.2125 229.3 80.9125 230.2ZM265.412 239.7C264.112 241 263.912 236.6 265.112 233.7C265.612 232.3 265.912 232.7 266.112 235.3C266.312 237.1 266.012 239.1 265.412 239.7ZM272.312 242.3C272.312 243.4 271.912 244.6 271.312 244.9C270.712 245.3 270.312 244.4 270.312 243C270.312 241.6 270.812 240.4 271.312 240.4C271.912 240.4 272.312 241.3 272.312 242.3ZM267.012 243.4C267.112 244.5 266.812 245.6 266.212 245.9C265.712 246.3 265.312 247 265.312 247.5C265.312 248.1 265.812 248.2 266.312 247.9C267.812 247 267.512 250.7 265.912 253C264.612 254.7 264.512 254.4 264.512 249.9C264.512 244.4 265.112 241.4 266.212 241.4C266.612 241.4 266.912 242.3 267.012 243.4ZM271.412 252.7C270.112 254 269.912 250.6 271.112 247.7C271.712 246.2 271.912 246.4 272.112 248.8C272.312 250.4 272.012 252.1 271.412 252.7ZM267.112 258.9C266.812 261.4 266.912 263.4 267.412 263.4C267.912 263.4 268.412 266.4 268.412 270.1L268.512 276.9L269.712 271.7C270.912 266 273.312 262.3 273.312 266.1C273.312 268.5 270.612 276.6 269.512 277.4C269.112 277.7 267.912 279.7 266.912 281.9C264.412 287 264.112 285.3 265.112 273.2C265.512 267.5 265.512 262.7 264.912 261.5C264.312 260.1 264.412 258.5 265.112 256.9C266.812 253.1 267.612 253.9 267.112 258.9ZM273.312 257.3C273.312 260.6 272.412 263.4 271.412 263.4C271.112 263.4 270.912 261.7 271.012 259.7C271.212 254.3 271.212 254.4 272.312 254.4C272.912 254.4 273.312 255.7 273.312 257.3ZM52.0125 270.1C51.8125 271.7 51.6125 270.4 51.6125 267.4C51.6125 264.4 51.8125 263.1 52.0125 264.6C52.2125 266.2 52.2125 268.6 52.0125 270.1ZM271.612 285.1C270.012 287.7 270.012 287.8 271.612 286.5C273.412 285.1 273.312 285.5 269.912 293.4C269.612 294.2 269.512 293.2 269.712 291.1C270.012 289.1 269.812 287.4 269.312 287.4C268.312 287.4 269.912 279.9 271.612 277C272.712 275 272.812 275.2 273.112 278.6C273.312 280.9 272.712 283.4 271.612 285.1ZM55.3125 290.9L53.3125 296.9L53.8125 290.9C54.0125 287.6 54.8125 283.1 55.5125 280.9L56.8125 276.9L57.0125 280.9C57.2125 283.1 56.4125 287.6 55.3125 290.9ZM52.0125 289.6C51.8125 290.9 51.6125 289.9 51.6125 287.4C51.6125 284.9 51.8125 283.9 52.0125 285.1C52.2125 286.4 52.2125 288.4 52.0125 289.6ZM267.312 285.8C266.812 287.1 266.712 289.2 267.012 290.5C267.312 292.3 267.212 292.5 266.512 291.5C265.712 290.4 265.412 290.5 265.012 292C264.712 293.1 264.512 292.5 264.412 290.5C264.412 288.6 265.012 286.3 266.012 285.2C268.112 282.8 268.412 282.9 267.312 285.8ZM262.012 297.1C261.812 298.7 261.612 297.4 261.612 294.4C261.612 291.4 261.812 290.1 262.012 291.6C262.212 293.2 262.212 295.6 262.012 297.1ZM282.812 296.4C282.612 302.8 282.212 303.8 278.712 308.1C276.612 310.7 274.712 312.2 274.512 311.5C274.012 309.9 281.212 289.4 282.312 289.4C282.812 289.4 283.012 292.6 282.812 296.4ZM271.412 300.7C268.912 304.7 268.712 302.6 271.012 295.3L272.812 289.9L273.112 293.7C273.312 296.3 272.812 298.5 271.412 300.7ZM64.4125 298.5C61.9125 302.6 61.8125 302.2 64.0125 295.8C65.3125 292.3 65.8125 291.5 66.1125 293C66.3125 294.2 65.5125 296.7 64.4125 298.5ZM55.7125 315.4C54.8125 317.9 53.8125 320.2 53.4125 320.6C52.4125 321.7 53.2125 306.6 54.4125 300.4C56.1125 291.8 56.8125 292.2 57.1125 301.9C57.3125 308.4 56.9125 312.1 55.7125 315.4ZM265.812 310.5C265.012 315 264.012 319 263.712 319.3C262.612 320.4 264.512 296.9 265.712 294.9C267.512 291.6 267.612 301 265.812 310.5ZM51.4125 313.4L50.6125 329.9L50.4125 315.3C50.4125 307.2 50.6125 299.1 51.0125 297.3C52.2125 291.6 52.3125 296.2 51.4125 313.4ZM276.512 299.6C275.112 303.2 274.712 303.5 274.512 301.6C274.212 299.7 276.612 295.4 277.912 295.4C278.012 295.4 277.412 297.3 276.512 299.6ZM272.212 307.6C271.812 311.1 270.312 318.2 268.812 323.4C266.912 330.2 266.112 335.3 266.112 341.4C266.012 354.7 266.312 355.5 273.912 359.2C283.112 363.8 280.912 365 271.412 360.6C266.112 358.2 263.312 356.4 262.912 355C262.112 352 263.312 327.6 264.512 322.1C265.012 319.5 265.912 317.4 266.312 317.4C266.812 317.4 267.512 314.8 267.912 311.6C268.512 306.6 270.712 301.5 272.412 301.4C272.712 301.4 272.612 304.2 272.212 307.6ZM294.112 308.8C292.112 313.6 279.512 331 278.612 330.1C277.912 329.3 281.812 318.2 283.012 317.7C283.712 317.4 284.312 316.8 284.312 316.2C284.312 315.1 295.512 302.3 296.112 302.8C296.212 303 295.412 305.7 294.112 308.8ZM283.312 308.3C283.312 311.6 281.012 316.8 277.912 320.6C276.212 322.7 274.612 324.4 274.312 324.4C274.012 324.4 274.012 322 274.112 319.2C274.412 314.7 275.012 313.3 278.112 310.1C282.112 306 283.312 305.5 283.312 308.3ZM261.012 322.1C260.812 324.8 260.712 322.6 260.712 317.4C260.712 312.2 260.812 310 261.012 312.6C261.212 315.3 261.212 319.5 261.012 322.1ZM102.912 316.4C102.712 317.2 100.212 323.1 97.3125 329.4C94.5125 335.7 91.8125 341.8 91.3125 342.9C90.2125 345.4 88.3125 353.8 88.3125 355.9C88.3125 356.8 88.8125 357.2 89.3125 356.9C89.9125 356.6 90.3125 357 90.3125 357.8C90.3125 360.6 80.6125 354.7 79.4125 351.1C77.5125 345.7 78.2125 336.8 80.8125 333.6C80.9125 333.5 82.3125 333.9 83.8125 334.6C86.2125 335.7 86.5125 336.2 86.0125 339.4C85.8125 341.4 84.4125 344.9 82.9125 347.2C79.9125 352.1 79.5125 354 82.3125 350.4C84.1125 348.1 84.3125 348.1 84.3125 349.9C84.4125 351 85.0125 349.8 85.7125 347.2C86.4125 344.6 88.1125 340.8 89.5125 338.7C90.8125 336.6 92.8125 333.5 93.7125 331.9L95.5125 328.9L92.9125 331.9C91.5125 333.5 90.3125 335.2 90.3125 335.6C90.3125 336.1 89.9125 336.4 89.4125 336.4C88.3125 336.4 90.5125 329.5 95.3125 318.1L98.6125 310.3L101.012 312.6C102.312 313.8 103.212 315.5 102.912 316.4ZM270.312 329.8C267.812 332.2 267.812 332.8 270.512 323.4L271.812 318.9L272.112 323.3C272.412 326.8 272.012 328.2 270.312 329.8ZM288.712 323.7C287.412 327.7 276.512 342 275.612 341C274.712 340.1 278.512 333.4 283.812 326.6C286.912 322.7 289.612 319.4 289.812 319.4C290.012 319.4 289.512 321.3 288.712 323.7ZM277.212 329C274.512 338 273.312 339.1 273.312 332.7C273.312 328.6 273.812 326.9 275.912 324.4C277.412 322.7 278.712 321.5 278.912 321.7C279.212 321.9 278.412 325.2 277.212 329ZM297.712 334.8C295.012 341.1 290.812 348.6 287.712 352.7C284.812 356.7 282.312 360.3 282.312 360.8C282.312 362 282.712 361.6 287.312 355.3C291.812 349.4 291.912 349.4 289.812 355.4C289.012 357.7 288.312 360.7 288.312 362C288.312 363.3 288.112 364.4 287.812 364.4C286.812 364.4 279.312 360.4 279.312 359.9C279.312 359.6 280.312 355.9 281.412 351.7C283.412 344.4 284.112 343.3 292.712 333.8C297.712 328.3 301.912 323.8 302.112 323.9C302.212 324 300.312 328.9 297.712 334.8ZM272.712 334.6C273.812 341.7 273.512 344.6 271.312 346.9C269.012 349.3 268.612 351.3 270.712 349.5C271.912 348.5 272.112 348.7 271.712 350.6C271.512 351.9 272.012 351.1 272.812 348.9C273.712 346.7 276.812 342.2 279.812 338.9L285.312 332.9L283.312 338.8C282.212 342.1 280.112 346.3 278.612 348.3C276.212 351.5 276.212 351.7 278.212 349.9L280.612 347.9L280.012 349.9C279.712 351 279.112 353.6 278.712 355.6C278.412 357.7 278.012 359.4 277.812 359.4C277.712 359.4 275.512 358.5 272.912 357.3C269.012 355.6 268.312 354.9 268.412 352.6C268.512 351.1 268.212 346.7 267.812 342.7C267.212 336.8 267.312 335 268.712 332.9C271.012 329.4 272.012 329.8 272.712 334.6ZM246.312 340.1C245.712 341.8 244.112 343.6 242.812 344.2C241.512 344.8 238.612 346.9 236.412 348.9C233.312 351.7 230.712 352.9 224.612 354.4C220.312 355.4 216.712 356.1 216.512 355.9C216.212 355.6 233.012 345.4 233.812 345.4C234.112 345.4 233.612 346.5 232.712 347.9C231.812 349.3 231.312 350.4 231.612 350.4C232.012 350.4 233.312 348.8 234.712 346.8C236.712 343.8 246.212 336.1 247.112 336.9C247.212 337 246.812 338.4 246.312 340.1ZM125.012 355.6C124.812 356.9 124.612 356.1 124.612 353.9C124.512 351.7 124.712 350.7 125.012 351.6C125.212 352.6 125.212 354.4 125.012 355.6ZM285.312 365.4C286.712 366.5 287.512 367.4 287.112 367.4C285.712 367.4 281.312 365.1 281.312 364.2C281.312 362.9 282.612 363.3 285.312 365.4ZM297.812 371.6C302.512 373.9 306.312 376.2 306.312 376.6C306.312 377.1 302.312 375.4 297.312 372.9C289.412 368.9 287.012 367.4 288.812 367.4C289.112 367.4 293.112 369.3 297.812 371.6ZM359.612 376.1C359.312 378.2 358.012 381 356.812 382.3C354.612 384.6 354.512 384.6 351.812 382.8L349.012 381L353.912 376.7C356.612 374.3 359.112 372.4 359.512 372.4C359.912 372.4 359.912 374.1 359.612 376.1ZM311.412 377.8C312.812 378.5 315.212 379.4 316.712 379.8C318.212 380.2 319.112 380.9 318.812 381.4C317.912 382.9 315.712 382.6 313.912 380.9C313.112 380 312.012 379.3 311.612 379.4C309.812 379.4 307.312 378.2 307.312 377.3C307.312 376.1 308.312 376.2 311.412 377.8ZM326.812 384.4C327.612 384.4 328.312 385 328.312 385.8C328.312 386.7 329.012 387 330.212 386.7C331.212 386.5 332.612 386.9 333.412 387.7C334.212 388.4 335.312 388.9 335.912 388.7C336.612 388.5 337.812 389 338.712 389.9C339.612 390.8 340.312 391.3 340.312 391C340.312 390.7 342.912 391.6 346.112 393C351.012 395.1 351.512 395.2 349.512 393.5L347.312 391.5L350.712 388.9C353.612 386.7 354.412 386.5 356.512 387.5C358.712 388.5 359.012 389.2 359.112 394.9C359.212 402.1 359.912 401.9 350.812 397.4C348.112 396 345.612 394.6 345.512 394.1C345.312 393.7 344.712 393.6 344.312 393.9C343.812 394.2 341.212 393.4 338.612 392.2C336.012 390.9 331.812 389.2 329.412 388.4C327.012 387.6 324.912 386.5 324.612 385.8C324.312 385.1 323.612 384.7 323.012 385C321.212 385.6 318.912 383.8 319.812 382.5C320.312 381.6 321.112 381.7 322.912 382.8C324.212 383.7 325.912 384.4 326.812 384.4ZM359.312 384.6C359.312 387.6 359.212 387.7 357.612 386.2C356.312 384.8 356.212 384.2 357.312 383C359.112 380.8 359.312 381 359.312 384.6ZM350.712 383.9C352.612 385.3 352.612 385.4 350.712 387.5C347.712 390.8 345.812 391.5 343.812 390C342.012 388.7 342.012 388.5 344.412 385.6C347.112 382.1 348.012 381.9 350.712 383.9Z" fill="black"/>
<path d="M228.813 56.3998C229.913 56.8998 231.513 57.2998 232.313 57.2998C233.213 57.2998 233.113 56.8998 231.813 56.3998C230.713 55.8998 229.113 55.4998 228.313 55.4998C227.413 55.4998 227.513 55.8998 228.813 56.3998Z" fill="black"/>
<path d="M158.112 57.1C159.312 57.3 161.112 57.3 162.112 57.1C163.012 56.8 162.012 56.6 159.812 56.7C157.612 56.7 156.812 56.9 158.112 57.1Z" fill="black"/>
<path d="M222.312 56.9003C222.312 57.7003 228.412 60.5003 229.312 60.2003C229.812 60.0003 228.412 59.1003 226.312 58.2003C224.112 57.3003 222.312 56.7003 222.312 56.9003Z" fill="black"/>
<path d="M138.812 62.0004C122.112 64.2004 122.612 64.1004 121.312 67.9004C120.112 71.6004 120.312 87.4004 121.612 87.4004C122.012 87.4004 122.312 82.7004 122.312 76.9004C122.312 66.9004 122.412 66.3004 124.612 65.5004C126.412 64.8004 145.712 62.4004 159.312 61.1004C161.212 60.9004 159.712 60.7004 155.812 60.7004C152.012 60.6004 144.312 61.2004 138.812 62.0004Z" fill="black"/>
<path d="M80.6125 71.2002C77.2125 76.3002 74.3125 81.8002 74.3125 83.1002C74.3125 83.5002 75.6125 81.6002 77.2125 78.8002C78.7125 75.9002 81.0125 72.2002 82.3125 70.5002C83.5125 68.7002 84.3125 67.1002 84.1125 66.9002C83.9125 66.7002 82.3125 68.6002 80.6125 71.2002Z" fill="black"/>
<path d="M83.5133 78.9999C80.5133 84.1999 78.3133 88.7999 78.6133 88.9999C78.8133 89.1999 80.5133 86.5999 82.3133 83.1999C84.1133 79.6999 86.7133 75.1999 88.0133 73.0999C89.3133 71.0999 90.0133 69.3999 89.6133 69.3999C89.1133 69.3999 86.4133 73.6999 83.5133 78.9999Z" fill="black"/>
<path d="M156.613 82.4997C155.413 84.5997 154.913 86.1997 155.413 85.7997C156.513 85.1997 159.613 79.3997 159.113 78.8997C158.913 78.6997 157.813 80.2997 156.613 82.4997Z" fill="black"/>
<path d="M158.412 87.8997C154.112 94.6997 152.612 98.3997 156.612 92.3997C160.612 86.3997 163.512 81.3997 163.012 81.3997C162.712 81.3997 160.612 84.2997 158.412 87.8997Z" fill="black"/>
<path d="M124.212 108.8C110.612 127.9 91.9121 156.4 92.5121 156.9C92.8121 157.2 94.6121 155.1 96.5121 152.2C98.4121 149.3 103.912 141 108.612 133.7C113.412 126.5 120.912 115.3 125.412 108.9C129.812 102.5 133.312 97.1002 133.112 96.9002C133.012 96.8002 128.912 102.1 124.212 108.8Z" fill="black"/>
<path d="M158.413 119.3C152.813 128.9 151.513 132.7 156.313 125.1C159.713 119.7 164.513 110.4 163.913 110.4C163.713 110.4 161.213 114.4 158.413 119.3Z" fill="black"/>
<path d="M118.013 137.6C112.813 144 87.5134 178.7 80.9134 188.4C71.6134 202.1 79.3134 192.2 101.513 161.8C120.913 135.3 126.213 127.6 118.013 137.6Z" fill="black"/>
<path d="M121.713 148.6C109.113 161.7 97.4134 177.1 89.5134 191.2C84.0134 200.9 85.6134 199.6 92.0134 189.1C99.0134 177.8 107.813 165.9 118.513 153.6C123.413 148 127.313 143.4 127.113 143.4C126.913 143.4 124.413 145.8 121.713 148.6Z" fill="black"/>
<path d="M119.412 160.2C114.312 163.7 90.9119 197.3 92.5119 198.9C92.7119 199.2 95.8119 194.6 99.4119 188.7C106.412 176.9 115.112 165.4 120.212 161.1C123.712 158.2 123.212 157.5 119.412 160.2Z" fill="black"/>
<path d="M109.713 182.1C100.013 194.5 94.2132 202.6 97.5132 199.4C99.0132 197.9 118.213 173 119.713 170.6C121.913 167 118.713 170.7 109.713 182.1Z" fill="black"/>
<path d="M158.112 198.1C152.612 205.4 150.012 209.5 150.612 210C150.912 210.3 160.712 197.2 162.712 193.6C164.512 190.5 162.012 192.9 158.112 198.1Z" fill="black"/>
<path d="M134.813 203.4C133.213 205 132.113 206.5 132.413 206.7C132.613 206.9 134.113 205.6 135.613 203.7C139.213 199.6 138.713 199.4 134.813 203.4Z" fill="black"/>
<path d="M161.513 205.1C157.813 210 154.413 215.4 156.513 213.4C158.513 211.3 165.613 201.4 165.013 201.4C164.713 201.4 163.113 203.1 161.513 205.1Z" fill="black"/>
<path d="M266.612 78.9004C266.612 81.1004 266.812 81.9004 267.012 80.6004C267.212 79.4004 267.212 77.6004 267.012 76.6004C266.712 75.7004 266.512 76.7004 266.612 78.9004Z" fill="black"/>
<path d="M256.312 78.4004L252.812 79.1004L256.112 79.3004C259.112 79.4004 259.312 79.6004 258.712 82.1004C258.312 84.3004 258.412 84.6004 259.212 83.4004C259.812 82.6004 260.312 81.1004 260.312 80.2004C260.312 79.3004 261.312 78.3004 262.612 78.1004C264.612 77.7004 264.612 77.7004 262.312 77.7004C260.912 77.7004 258.212 78.0004 256.312 78.4004Z" fill="black"/>
<path d="M183.013 90.8997C178.713 91.5997 174.913 92.4997 174.513 92.7997C173.613 93.6997 176.013 93.4997 184.713 91.8997C189.213 91.0997 194.413 90.2997 196.313 90.0997C199.213 89.7997 199.013 89.6997 195.313 89.6997C192.813 89.5997 187.313 90.1997 183.013 90.8997Z" fill="black"/>
<path d="M175.812 98.4004C174.012 98.9004 175.612 99.0004 179.812 98.7004C183.712 98.4004 187.012 98.0004 187.212 97.8004C188.012 97.1004 178.812 97.6004 175.812 98.4004Z" fill="black"/>
<path d="M171.813 117.4L169.812 118.3L171.813 118.2C172.913 118.2 175.213 117.8 176.813 117.4L179.813 116.6H176.813C175.213 116.6 172.913 116.9 171.813 117.4Z" fill="black"/>
<path d="M252.213 172.2C253.613 174.8 254.213 177.4 253.813 178.7C253.313 180.4 253.413 180.6 254.213 179.4C255.113 178.2 255.313 178.2 255.813 179.6C256.713 181.9 254.413 186.2 253.313 184.3C252.813 183.6 252.713 182.6 252.913 182.2C253.213 181.8 253.013 181.4 252.513 181.4C252.013 181.4 251.013 180 250.313 178.4C249.613 176.7 248.813 175.5 248.613 175.7C248.413 176 249.413 178.7 250.913 181.9C253.413 187.1 253.813 187.5 255.013 185.8C255.713 184.8 256.313 183.5 256.313 183C256.413 182.4 257.013 183 257.813 184.4C258.613 185.8 259.213 186.3 259.313 185.6C259.313 184.1 252.613 170.3 251.113 168.9C250.613 168.3 251.113 169.8 252.213 172.2Z" fill="black"/>
<path d="M75.1132 217.6C74.8132 220 75.0132 222.8 75.4132 223.9C75.9132 225.2 76.2132 223.7 76.2132 219.6C76.3132 212.5 75.7132 211.4 75.1132 217.6Z" fill="black"/>
<path d="M107.813 338.4C102.513 345.7 96.3133 358.1 96.4133 361.2C96.5133 362.9 96.7133 363.2 97.0133 362.1C97.2133 361.2 97.9133 360.4 98.4133 360.4C99.0133 360.4 99.1133 359.9 98.8133 359.4C98.0133 358 103.413 346.4 107.613 340.5C111.713 334.8 112.513 333.4 111.913 333.4C111.713 333.4 109.813 335.7 107.813 338.4Z" fill="black"/>
<path d="M113.013 355.9C112.113 357.9 111.113 361.3 110.813 363.7L110.312 367.9L111.713 363.4C112.413 360.9 113.613 357.6 114.213 356C115.913 351.9 115.013 351.8 113.013 355.9Z" fill="black"/>
<path d="M116.213 367C115.713 368.5 115.413 369.9 115.713 370.1C115.913 370.3 116.513 369.1 117.113 367.5C118.413 363.7 117.613 363.4 116.213 367Z" fill="black"/>
<path d="M148.312 234.4C147.212 236.6 146.512 238.4 146.812 238.4C147.012 238.4 148.212 236.6 149.312 234.4C150.412 232.2 151.112 230.4 150.812 230.4C150.612 230.4 149.412 232.2 148.312 234.4Z" fill="black"/>
<path d="M230.813 272.1C225.013 288.4 210.613 318.1 202.913 329.6C201.913 331.2 201.313 332.4 201.613 332.4C202.613 332.4 212.913 315.2 217.613 305.8C223.613 293.8 235.313 264.4 234.013 264.4C233.813 264.4 232.313 267.9 230.813 272.1Z" fill="black"/>
<path d="M219.012 281.7C215.412 289.6 214.012 291.8 212.612 291.6C211.212 291.3 211.112 291.5 212.112 292.7C213.212 294 212.812 297.4 211.512 297.4C211.212 297.4 209.812 296.4 208.412 295.1L205.912 292.9L208.312 296.3L210.612 299.7L206.912 307.1C204.912 311.2 203.612 314.3 204.012 314.1C204.512 313.8 206.812 309.5 209.312 304.5C211.812 299.4 214.312 295.6 214.912 295.8C215.612 296.1 215.912 295.5 215.612 294.6C215.412 293.6 217.312 288.2 219.812 282.5C222.312 276.8 224.212 272 224.012 271.8C223.912 271.6 221.612 276.1 219.012 281.7Z" fill="black"/>
<path d="M114.412 217.8C114.812 218.1 125.312 222.6 129.312 224.1C130.112 224.4 129.812 223.9 128.612 223C126.012 221.1 112.612 216.1 114.412 217.8Z" fill="black"/>
<path d="M273.813 226.1C271.913 228.8 270.312 231.3 270.312 231.8C270.312 233 270.513 232.8 274.713 226.6C279.213 220.1 278.513 219.7 273.813 226.1Z" fill="black"/>
<path d="M413.512 247.9C413.612 258.9 413.612 258.9 414.512 252.2C415.112 247.9 415.112 243.8 414.512 241.2C413.712 237.6 413.512 238.6 413.512 247.9Z" fill="black"/>
<path d="M416.512 249.5C416.312 263.1 417.012 271.4 418.512 271.4C418.912 271.4 419.112 270.3 418.712 269C418.412 267.7 417.812 259.9 417.412 251.8L416.612 236.9L416.512 249.5Z" fill="black"/>
<path d="M430.612 271.7C428.912 272.4 427.112 273.3 426.612 273.8C426.112 274.3 426.612 274.4 427.812 273.9C428.912 273.5 431.912 272.9 434.612 272.7C437.212 272.4 439.312 271.8 439.312 271.3C439.312 270.1 434.412 270.3 430.612 271.7Z" fill="black"/>
<path d="M430.913 278.4C431.413 282.7 431.913 284.2 432.613 283.3C432.813 283.1 432.413 280.9 431.713 278.4L430.312 273.9L430.913 278.4Z" fill="black"/>
<path d="M484.813 334.2C479.113 341.7 469.813 356.5 466.713 362.8C462.613 371.4 463.613 370 470.713 357.5C473.613 352.4 478.513 344.5 481.713 340.1C484.813 335.7 487.213 332 487.113 331.9C486.913 331.7 485.913 332.8 484.813 334.2Z" fill="black"/>
<path d="M486.212 365.3C480.612 373.3 477.612 378.2 479.012 376.9C480.812 375.2 491.612 359.3 491.212 359C491.012 358.8 488.712 361.6 486.212 365.3Z" fill="black"/>
<path d="M434.513 368.6L434.313 376.4L430.613 376.5L426.812 376.6L430.113 377.7C433.913 378.9 443.413 377.2 445.313 375C446.213 373.8 445.713 373.8 442.613 375C435.613 377.5 435.413 377.3 435.013 368.6L434.713 360.9L434.513 368.6Z" fill="black"/>
<path d="M425.012 383.8C424.512 388.6 424.412 392.8 424.712 393.1C425.512 393.9 426.512 385.2 426.112 379.9C425.812 375.6 425.712 376.2 425.012 383.8Z" fill="black"/>
<path d="M370.313 383.3C369.913 385 368.713 386.1 366.313 387C362.913 388.2 362.913 388.3 365.613 388.3C367.513 388.4 368.313 388.9 368.313 390.1C368.313 391.5 368.613 391.4 369.913 389.6C371.713 387 375.913 386.5 374.913 389C374.613 389.9 374.113 391.8 373.813 393.2L373.313 395.9L374.413 393.4C375.013 392 375.913 389.9 376.413 388.7C376.813 387.5 378.013 386.3 379.013 386.1C380.013 385.8 378.713 385.8 376.113 386C371.613 386.4 371.413 386.3 371.113 383.7C370.713 381 370.713 381 370.313 383.3Z" fill="black"/>
<path d="M353.113 393.1C354.913 394.6 355.113 395.2 354.113 396.3C353.413 397.1 354.013 396.9 355.513 395.8C358.513 393.7 359.013 392.7 357.113 392.7C356.413 392.7 354.713 392.4 353.313 392L350.812 391.3L353.113 393.1Z" fill="black"/>
</svg>
