<svg width="15" height="16" viewBox="0 0 15 16" fill="none" xmlns="http://www.w3.org/2000/svg">
<path fill-rule="evenodd" clip-rule="evenodd" d="M10.0454 0H2.04543C1.24543 0 0.590881 0.654545 0.590881 1.45455V10.9091C0.590881 11.3091 0.918154 11.6364 1.31815 11.6364C1.71815 11.6364 2.04543 11.3091 2.04543 10.9091V2.18182C2.04543 1.78182 2.3727 1.45455 2.7727 1.45455H10.0454C10.4454 1.45455 10.7727 1.12727 10.7727 0.727273C10.7727 0.327273 10.4454 0 10.0454 0ZM12.9545 2.90909H4.95452C4.15452 2.90909 3.49997 3.56364 3.49997 4.36364V14.5455C3.49997 15.3455 4.15452 16 4.95452 16H12.9545C13.7545 16 14.4091 15.3455 14.4091 14.5455V4.36364C14.4091 3.56364 13.7545 2.90909 12.9545 2.90909ZM5.68179 14.5455H12.2272C12.6272 14.5455 12.9545 14.2182 12.9545 13.8182V5.09091C12.9545 4.69091 12.6272 4.36364 12.2272 4.36364H5.68179C5.28179 4.36364 4.95452 4.69091 4.95452 5.09091V13.8182C4.95452 14.2182 5.28179 14.5455 5.68179 14.5455Z" fill="#161616"/>
</svg>
