<svg width="32" height="32" viewBox="0 0 32 32" fill="none" xmlns="http://www.w3.org/2000/svg">
<path d="M16.1422 15.4776C16.275 15.487 16.3603 15.5487 16.3982 15.6624C16.4456 15.7762 16.4361 15.89 16.3698 16.0038C16.3034 16.1081 16.2039 16.1555 16.0711 16.146C15.1135 16.0701 14.0421 16.127 12.8569 16.3167C12.7526 19.4456 12.5487 22.6503 12.2453 25.9309C12.2359 26.0731 12.1695 26.1632 12.0462 26.2011C11.9324 26.2485 11.8234 26.2343 11.7191 26.1584C11.6148 26.0921 11.5721 25.9925 11.5911 25.8598C11.8756 22.6645 12.0747 19.5214 12.1884 16.4304C11.3256 16.6011 10.3159 16.8524 9.15911 17.1842C7.75585 17.5824 6.45215 18.0376 5.248 18.5496C4.58429 20.6355 4.07229 22.6171 3.712 24.4944C3.67407 24.6841 3.55555 24.7789 3.35644 24.7789C3.16681 24.7789 3.06252 24.6936 3.04355 24.5229C3.04355 24.4944 3.04829 24.4613 3.05778 24.4233C3.39911 22.6218 3.85422 20.7872 4.42311 18.9193C3.2 19.4977 2.10489 20.1282 1.13778 20.8109C1.024 20.8867 0.91022 20.8962 0.796442 20.8393C0.673183 20.7824 0.606813 20.7018 0.597331 20.5976C0.578368 20.4933 0.616294 20.3937 0.711109 20.2989C1.87733 19.474 3.20474 18.7297 4.69333 18.066C5.21481 16.4636 5.79792 14.8802 6.44266 13.3158C6.46163 13.2589 6.5517 13.0313 6.71289 12.6331C6.88355 12.2254 6.98785 11.9694 7.02578 11.8651C7.07318 11.7608 7.17748 11.5238 7.33866 11.154C7.49985 10.7747 7.61837 10.514 7.69422 10.3718C7.77007 10.2201 7.88859 9.97829 8.04978 9.64644C8.22044 9.31459 8.36267 9.06333 8.47644 8.89266C8.59022 8.72199 8.73244 8.49918 8.90311 8.22422C9.08326 7.94925 9.24918 7.72644 9.40089 7.55577C9.55259 7.37562 9.72326 7.18599 9.91289 6.98688C10.1025 6.78777 10.2921 6.61236 10.4818 6.46066C10.8136 6.19518 11.1076 6.04348 11.3636 6.00555C11.629 5.96762 11.8471 6.03399 12.0178 6.20466C12.1884 6.36585 12.3259 6.57918 12.4302 6.84466C12.5345 7.10066 12.6151 7.41355 12.672 7.78333C12.8047 8.57977 12.8901 9.48525 12.928 10.4998C12.9754 11.5143 12.9896 12.3202 12.9707 12.9176C12.9612 13.5054 12.9327 14.4156 12.8853 15.6482C14.08 15.4681 15.1656 15.4112 16.1422 15.4776ZM8.76089 16.6153C10.0788 16.2266 11.2308 15.9421 12.2169 15.762C12.2738 14.6716 12.2975 13.4533 12.288 12.1069C12.288 10.7605 12.2264 9.54688 12.1031 8.46599C12.0936 8.43755 12.0794 8.33799 12.0604 8.16733C12.051 7.99666 12.0367 7.84496 12.0178 7.71222C11.9988 7.57948 11.9751 7.42777 11.9467 7.25711C11.9182 7.08644 11.8708 6.94422 11.8044 6.83044C11.7476 6.71666 11.6812 6.64555 11.6053 6.61711C11.3019 6.47488 10.7473 6.94422 9.94133 8.02511C9.41985 8.72674 8.91733 9.54688 8.43378 10.4856C7.95022 11.4242 7.56148 12.2491 7.26755 12.9602C6.98311 13.6713 6.64178 14.5721 6.24355 15.6624C5.98755 16.3546 5.74578 17.042 5.51822 17.7247C6.52326 17.317 7.60415 16.9472 8.76089 16.6153Z" fill="#161616"/>
<path d="M27.2521 13.202C26.9677 14.3682 26.6737 15.6672 26.3703 17.0989C26.3419 17.2601 26.2755 17.5587 26.1712 17.9949C26.0764 18.4216 26.0006 18.7676 25.9437 19.0331C25.8963 19.2891 25.8489 19.602 25.8014 19.9718C25.754 20.3416 25.7446 20.6829 25.773 20.9958C25.8014 21.3181 25.8631 21.6168 25.9579 21.8918C26.1854 22.5555 26.6168 23.0627 27.2521 23.4136C27.8874 23.7738 28.5274 23.8307 29.1721 23.5842C29.2954 23.5368 29.4044 23.551 29.4992 23.6269C29.594 23.7122 29.6367 23.8165 29.6272 23.9398C29.6272 24.063 29.5656 24.1484 29.4423 24.1958C28.8355 24.4328 28.2619 24.4755 27.7214 24.3238C27.1905 24.1816 26.7259 23.9208 26.3277 23.5416C25.9294 23.1718 25.6213 22.7119 25.4032 22.162C25.1946 21.6121 25.1046 21.0527 25.133 20.4838C25.152 20.095 25.1994 19.6589 25.2752 19.1753C25.3511 18.6823 25.4127 18.3125 25.4601 18.066C25.517 17.81 25.6213 17.3501 25.773 16.6864C25.9247 16.0133 26.0148 15.6293 26.0432 15.5344C26.0811 15.3638 26.1997 14.8613 26.3988 14.0269C26.0195 14.3872 24.9813 15.3116 23.2841 16.8002C23.0755 16.9898 22.4687 17.5066 21.4637 18.3504C20.4681 19.1943 19.7143 19.858 19.2023 20.3416C18.9179 21.413 18.6429 22.309 18.3774 23.0296C18.368 23.058 18.3348 23.1528 18.2779 23.314C18.221 23.4752 18.1831 23.5795 18.1641 23.6269C18.1451 23.6838 18.1072 23.7786 18.0503 23.9113C17.9934 24.0536 17.946 24.1626 17.9081 24.2384C17.8702 24.3143 17.818 24.4044 17.7517 24.5087C17.6948 24.613 17.6331 24.703 17.5668 24.7789C17.5099 24.8642 17.4435 24.9401 17.3677 25.0064C16.8936 25.4521 16.5191 25.4189 16.2441 24.9069C16.026 24.4992 15.9549 24.0298 16.0308 23.4989C16.0497 23.3946 16.0734 23.3045 16.1019 23.2287C16.4622 22.2331 17.3108 21.138 18.6477 19.9433C18.7994 19.3934 18.9985 18.6064 19.245 17.5824C19.4915 16.5584 19.648 15.9232 19.7143 15.6767C19.7997 15.3164 20.0083 14.5863 20.3401 13.4864C20.6814 12.3866 20.9232 11.4574 21.0654 10.6989C21.2171 9.93088 21.274 9.17237 21.2361 8.42333C21.1982 7.45622 20.9848 6.83992 20.5961 6.57444C20.4728 6.48911 20.3354 6.43222 20.1837 6.40377C20.0414 6.37533 19.8945 6.37533 19.7428 6.40377C19.6006 6.42274 19.4536 6.46066 19.3019 6.51755C19.1502 6.57444 19.0127 6.64081 18.8894 6.71666C18.7662 6.78303 18.6477 6.85888 18.5339 6.94422C17.8702 7.41829 17.3534 8.03933 16.9837 8.80733C16.6234 9.57533 16.5049 10.3386 16.6281 11.0971C16.6471 11.2298 16.6091 11.3341 16.5143 11.41C16.41 11.4764 16.301 11.4906 16.1872 11.4527C16.064 11.4147 15.9929 11.3294 15.9739 11.1967C15.898 10.7605 15.917 10.277 16.0308 9.74599C16.1351 9.20555 16.32 8.68881 16.5854 8.19577C16.8509 7.69325 17.1638 7.24288 17.5241 6.84466C17.8939 6.43696 18.3206 6.13355 18.8041 5.93444C19.2971 5.72585 19.7949 5.66896 20.2974 5.76377C20.7146 5.83962 21.0512 6.01977 21.3072 6.30422C21.5727 6.57918 21.7434 6.92999 21.8192 7.35666C21.9046 7.77385 21.952 8.20999 21.9614 8.66511C21.9709 9.11074 21.933 9.58955 21.8477 10.1016C21.7623 10.6136 21.677 11.0497 21.5917 11.41C21.5063 11.7608 21.4163 12.1021 21.3214 12.434C21.0275 13.4106 20.4207 15.6672 19.501 19.2038C20.1078 18.6918 20.4634 18.3884 20.5677 18.2936C20.7573 18.1229 21.1603 17.7673 21.7766 17.2269C22.4023 16.6864 22.8527 16.293 23.1277 16.0464C23.4121 15.7999 23.7961 15.4586 24.2797 15.0224C24.7632 14.5768 25.1994 14.1691 25.5881 13.7993C25.9769 13.4296 26.3609 13.055 26.7401 12.6758C26.9392 11.8698 27.1146 11.2109 27.2663 10.6989C27.7214 9.07755 28.1244 7.85444 28.4752 7.02955C28.5606 6.83992 28.6174 6.71192 28.6459 6.64555C28.6743 6.5697 28.7312 6.44644 28.8166 6.27577C28.9114 6.10511 28.992 5.97711 29.0583 5.89177C29.1342 5.80644 29.229 5.71636 29.3428 5.62155C29.4566 5.51725 29.5798 5.4414 29.7126 5.39399C29.9306 5.31814 30.1297 5.3134 30.3099 5.37977C30.4995 5.44614 30.656 5.55518 30.7792 5.70688C30.912 5.85859 31.0115 6.03874 31.0779 6.24733C31.3529 7.11962 31.0969 8.19577 30.3099 9.47577C29.5893 10.6515 28.57 11.8936 27.2521 13.202ZM17.1259 24.2384C17.2681 24.0204 17.4483 23.6316 17.6663 23.0722C17.8654 22.5413 18.0598 21.9581 18.2494 21.3229C17.8797 21.7306 17.5668 22.1051 17.3108 22.4464C16.5523 23.4704 16.3721 24.1721 16.7703 24.5513C16.8177 24.5987 16.8604 24.5987 16.8983 24.5513C16.9363 24.5134 17.0121 24.4091 17.1259 24.2384ZM28.8166 8.01088C28.3994 9.1297 28.0059 10.3623 27.6361 11.7087C27.93 11.3958 28.0912 11.2204 28.1197 11.1824C28.1386 11.1635 28.2382 11.0544 28.4183 10.8553C28.608 10.6467 28.7312 10.5045 28.7881 10.4287C28.8545 10.3528 28.9777 10.2058 29.1579 9.98777C29.3475 9.7697 29.4803 9.60377 29.5561 9.48999C29.6414 9.36674 29.7552 9.19607 29.8974 8.97799C30.0491 8.75992 30.1534 8.57977 30.2103 8.43755C30.2767 8.28585 30.3478 8.11044 30.4237 7.91133C30.509 7.70274 30.5564 7.51785 30.5659 7.35666C30.5849 7.19548 30.5849 7.02955 30.5659 6.85888C30.5469 6.67874 30.4995 6.51281 30.4237 6.36111C30.0918 5.68792 29.6462 6.00555 29.0868 7.31399C29.0014 7.50362 28.9114 7.72644 28.8166 7.98244V8.01088Z" fill="#161616"/>
<path d="M16.1422 15.4776C16.275 15.487 16.3603 15.5487 16.3982 15.6624C16.4456 15.7762 16.4361 15.89 16.3698 16.0038C16.3034 16.1081 16.2039 16.1555 16.0711 16.146C15.1135 16.0701 14.0421 16.127 12.8569 16.3167C12.7526 19.4456 12.5487 22.6503 12.2453 25.9309C12.2359 26.0731 12.1695 26.1632 12.0462 26.2011C11.9324 26.2485 11.8234 26.2343 11.7191 26.1584C11.6148 26.0921 11.5721 25.9925 11.5911 25.8598C11.8756 22.6645 12.0747 19.5214 12.1884 16.4304C11.3256 16.6011 10.3159 16.8524 9.15911 17.1842C7.75585 17.5824 6.45215 18.0376 5.248 18.5496C4.58429 20.6355 4.07229 22.6171 3.712 24.4944C3.67407 24.6841 3.55555 24.7789 3.35644 24.7789C3.16681 24.7789 3.06252 24.6936 3.04355 24.5229C3.04355 24.4944 3.04829 24.4613 3.05778 24.4233C3.39911 22.6218 3.85422 20.7872 4.42311 18.9193C3.2 19.4977 2.10489 20.1282 1.13778 20.8109C1.024 20.8867 0.91022 20.8962 0.796442 20.8393C0.673183 20.7824 0.606813 20.7018 0.597331 20.5976C0.578368 20.4933 0.616294 20.3937 0.711109 20.2989C1.87733 19.474 3.20474 18.7297 4.69333 18.066C5.21481 16.4636 5.79792 14.8802 6.44266 13.3158C6.46163 13.2589 6.5517 13.0313 6.71289 12.6331C6.88355 12.2254 6.98785 11.9694 7.02578 11.8651C7.07318 11.7608 7.17748 11.5238 7.33866 11.154C7.49985 10.7747 7.61837 10.514 7.69422 10.3718C7.77007 10.2201 7.88859 9.97829 8.04978 9.64644C8.22044 9.31459 8.36267 9.06333 8.47644 8.89266C8.59022 8.72199 8.73244 8.49918 8.90311 8.22422C9.08326 7.94925 9.24918 7.72644 9.40089 7.55577C9.55259 7.37562 9.72326 7.18599 9.91289 6.98688C10.1025 6.78777 10.2921 6.61236 10.4818 6.46066C10.8136 6.19518 11.1076 6.04348 11.3636 6.00555C11.629 5.96762 11.8471 6.03399 12.0178 6.20466C12.1884 6.36585 12.3259 6.57918 12.4302 6.84466C12.5345 7.10066 12.6151 7.41355 12.672 7.78333C12.8047 8.57977 12.8901 9.48525 12.928 10.4998C12.9754 11.5143 12.9896 12.3202 12.9707 12.9176C12.9612 13.5054 12.9327 14.4156 12.8853 15.6482C14.08 15.4681 15.1656 15.4112 16.1422 15.4776ZM8.76089 16.6153C10.0788 16.2266 11.2308 15.9421 12.2169 15.762C12.2738 14.6716 12.2975 13.4533 12.288 12.1069C12.288 10.7605 12.2264 9.54688 12.1031 8.46599C12.0936 8.43755 12.0794 8.33799 12.0604 8.16733C12.051 7.99666 12.0367 7.84496 12.0178 7.71222C11.9988 7.57948 11.9751 7.42777 11.9467 7.25711C11.9182 7.08644 11.8708 6.94422 11.8044 6.83044C11.7476 6.71666 11.6812 6.64555 11.6053 6.61711C11.3019 6.47488 10.7473 6.94422 9.94133 8.02511C9.41985 8.72674 8.91733 9.54688 8.43378 10.4856C7.95022 11.4242 7.56148 12.2491 7.26755 12.9602C6.98311 13.6713 6.64178 14.5721 6.24355 15.6624C5.98755 16.3546 5.74578 17.042 5.51822 17.7247C6.52326 17.317 7.60415 16.9472 8.76089 16.6153Z" stroke="#161616"/>
<path d="M27.2521 13.202C26.9677 14.3682 26.6737 15.6672 26.3703 17.0989C26.3419 17.2601 26.2755 17.5587 26.1712 17.9949C26.0764 18.4216 26.0006 18.7676 25.9437 19.0331C25.8963 19.2891 25.8489 19.602 25.8014 19.9718C25.754 20.3416 25.7446 20.6829 25.773 20.9958C25.8014 21.3181 25.8631 21.6168 25.9579 21.8918C26.1854 22.5555 26.6168 23.0627 27.2521 23.4136C27.8874 23.7738 28.5274 23.8307 29.1721 23.5842C29.2954 23.5368 29.4044 23.551 29.4992 23.6269C29.594 23.7122 29.6367 23.8165 29.6272 23.9398C29.6272 24.063 29.5656 24.1484 29.4423 24.1958C28.8355 24.4328 28.2619 24.4755 27.7214 24.3238C27.1905 24.1816 26.7259 23.9208 26.3277 23.5416C25.9294 23.1718 25.6213 22.7119 25.4032 22.162C25.1946 21.6121 25.1046 21.0527 25.133 20.4838C25.152 20.095 25.1994 19.6589 25.2752 19.1753C25.3511 18.6823 25.4127 18.3125 25.4601 18.066C25.517 17.81 25.6213 17.3501 25.773 16.6864C25.9247 16.0133 26.0148 15.6293 26.0432 15.5344C26.0811 15.3638 26.1997 14.8613 26.3988 14.0269C26.0195 14.3872 24.9813 15.3116 23.2841 16.8002C23.0755 16.9898 22.4687 17.5066 21.4637 18.3504C20.4681 19.1943 19.7143 19.858 19.2023 20.3416C18.9179 21.413 18.6429 22.309 18.3774 23.0296C18.368 23.058 18.3348 23.1528 18.2779 23.314C18.221 23.4752 18.1831 23.5795 18.1641 23.6269C18.1451 23.6838 18.1072 23.7786 18.0503 23.9113C17.9934 24.0536 17.946 24.1626 17.9081 24.2384C17.8702 24.3143 17.818 24.4044 17.7517 24.5087C17.6948 24.613 17.6331 24.703 17.5668 24.7789C17.5099 24.8642 17.4435 24.9401 17.3677 25.0064C16.8936 25.4521 16.5191 25.4189 16.2441 24.9069C16.026 24.4992 15.9549 24.0298 16.0308 23.4989C16.0497 23.3946 16.0734 23.3045 16.1019 23.2287C16.4622 22.2331 17.3108 21.138 18.6477 19.9433C18.7994 19.3934 18.9985 18.6064 19.245 17.5824C19.4915 16.5584 19.648 15.9232 19.7143 15.6767C19.7997 15.3164 20.0083 14.5863 20.3401 13.4864C20.6814 12.3866 20.9232 11.4574 21.0654 10.6989C21.2171 9.93088 21.274 9.17237 21.2361 8.42333C21.1982 7.45622 20.9848 6.83992 20.5961 6.57444C20.4728 6.48911 20.3354 6.43222 20.1837 6.40377C20.0414 6.37533 19.8945 6.37533 19.7428 6.40377C19.6006 6.42274 19.4536 6.46066 19.3019 6.51755C19.1502 6.57444 19.0127 6.64081 18.8894 6.71666C18.7662 6.78303 18.6477 6.85888 18.5339 6.94422C17.8702 7.41829 17.3534 8.03933 16.9837 8.80733C16.6234 9.57533 16.5049 10.3386 16.6281 11.0971C16.6471 11.2298 16.6091 11.3341 16.5143 11.41C16.41 11.4764 16.301 11.4906 16.1872 11.4527C16.064 11.4147 15.9929 11.3294 15.9739 11.1967C15.898 10.7605 15.917 10.277 16.0308 9.74599C16.1351 9.20555 16.32 8.68881 16.5854 8.19577C16.8509 7.69325 17.1638 7.24288 17.5241 6.84466C17.8939 6.43696 18.3206 6.13355 18.8041 5.93444C19.2971 5.72585 19.7949 5.66896 20.2974 5.76377C20.7146 5.83962 21.0512 6.01977 21.3072 6.30422C21.5727 6.57918 21.7434 6.92999 21.8192 7.35666C21.9046 7.77385 21.952 8.20999 21.9614 8.66511C21.9709 9.11074 21.933 9.58955 21.8477 10.1016C21.7623 10.6136 21.677 11.0497 21.5917 11.41C21.5063 11.7608 21.4163 12.1021 21.3214 12.434C21.0275 13.4106 20.4207 15.6672 19.501 19.2038C20.1078 18.6918 20.4634 18.3884 20.5677 18.2936C20.7573 18.1229 21.1603 17.7673 21.7766 17.2269C22.4023 16.6864 22.8527 16.293 23.1277 16.0464C23.4121 15.7999 23.7961 15.4586 24.2797 15.0224C24.7632 14.5768 25.1994 14.1691 25.5881 13.7993C25.9769 13.4296 26.3609 13.055 26.7401 12.6758C26.9392 11.8698 27.1146 11.2109 27.2663 10.6989C27.7214 9.07755 28.1244 7.85444 28.4752 7.02955C28.5606 6.83992 28.6174 6.71192 28.6459 6.64555C28.6743 6.5697 28.7312 6.44644 28.8166 6.27577C28.9114 6.10511 28.992 5.97711 29.0583 5.89177C29.1342 5.80644 29.229 5.71636 29.3428 5.62155C29.4566 5.51725 29.5798 5.4414 29.7126 5.39399C29.9306 5.31814 30.1297 5.3134 30.3099 5.37977C30.4995 5.44614 30.656 5.55518 30.7792 5.70688C30.912 5.85859 31.0115 6.03874 31.0779 6.24733C31.3529 7.11962 31.0969 8.19577 30.3099 9.47577C29.5893 10.6515 28.57 11.8936 27.2521 13.202ZM17.1259 24.2384C17.2681 24.0204 17.4483 23.6316 17.6663 23.0722C17.8654 22.5413 18.0598 21.9581 18.2494 21.3229C17.8797 21.7306 17.5668 22.1051 17.3108 22.4464C16.5523 23.4704 16.3721 24.1721 16.7703 24.5513C16.8177 24.5987 16.8604 24.5987 16.8983 24.5513C16.9363 24.5134 17.0121 24.4091 17.1259 24.2384ZM28.8166 8.01088C28.3994 9.1297 28.0059 10.3623 27.6361 11.7087C27.93 11.3958 28.0912 11.2204 28.1197 11.1824C28.1386 11.1635 28.2382 11.0544 28.4183 10.8553C28.608 10.6467 28.7312 10.5045 28.7881 10.4287C28.8545 10.3528 28.9777 10.2058 29.1579 9.98777C29.3475 9.7697 29.4803 9.60377 29.5561 9.48999C29.6414 9.36674 29.7552 9.19607 29.8974 8.97799C30.0491 8.75992 30.1534 8.57977 30.2103 8.43755C30.2767 8.28585 30.3478 8.11044 30.4237 7.91133C30.509 7.70274 30.5564 7.51785 30.5659 7.35666C30.5849 7.19548 30.5849 7.02955 30.5659 6.85888C30.5469 6.67874 30.4995 6.51281 30.4237 6.36111C30.0918 5.68792 29.6462 6.00555 29.0868 7.31399C29.0014 7.50362 28.9114 7.72644 28.8166 7.98244V8.01088Z" stroke="#161616"/>
</svg>
