<svg width="256" height="256" viewBox="0 0 256 256" fill="none" xmlns="http://www.w3.org/2000/svg">
<path d="M129.138 123.821C130.2 123.896 130.882 124.389 131.186 125.3C131.565 126.21 131.489 127.12 130.958 128.03C130.427 128.865 129.631 129.244 128.569 129.168C120.908 128.561 112.337 129.016 102.855 130.533C102.021 155.565 100.39 181.203 97.9627 207.447C97.8868 208.585 97.3559 209.306 96.3698 209.609C95.4596 209.988 94.5873 209.875 93.7529 209.268C92.9185 208.737 92.5772 207.94 92.7289 206.878C95.0045 181.316 96.5974 156.171 97.5076 131.444C90.6051 132.809 82.5268 134.819 73.2729 137.474C62.0468 140.66 51.6172 144.301 41.984 148.397C36.6744 165.084 32.5784 180.937 29.696 195.956C29.3926 197.473 28.4445 198.231 26.8516 198.231C25.3345 198.231 24.5002 197.549 24.3485 196.183C24.3485 195.956 24.3864 195.69 24.4622 195.387C27.1929 180.975 30.8338 166.298 35.3849 151.355C25.6 155.982 16.8391 161.026 9.10224 166.487C8.19201 167.094 7.28179 167.17 6.37157 166.715C5.38549 166.26 4.85453 165.615 4.77868 164.781C4.62698 163.946 4.93038 163.15 5.6889 162.391C15.0187 155.792 25.6379 149.838 37.5467 144.528C41.7185 131.709 46.3834 119.042 51.5413 106.526C51.6931 106.071 52.4136 104.251 53.7031 101.065C55.0685 97.8034 55.9028 95.7554 56.2062 94.921C56.5855 94.0867 57.4199 92.1904 58.7093 89.2321C59.9988 86.1981 60.947 84.1121 61.5538 82.9744C62.1606 81.7607 63.1088 79.8265 64.3982 77.1717C65.7636 74.5169 66.9014 72.5068 67.8116 71.1415C68.7218 69.7761 69.8596 67.9936 71.2249 65.7939C72.6661 63.5942 73.9935 61.8117 75.2071 60.4464C76.4208 59.0052 77.7861 57.4881 79.3031 55.8953C80.8202 54.3024 82.3372 52.8991 83.8542 51.6855C86.5091 49.5616 88.8605 48.348 90.9085 48.0446C93.0323 47.7412 94.7769 48.2721 96.1422 49.6375C97.5076 50.927 98.6074 52.6336 99.4418 54.7575C100.276 56.8055 100.921 59.3086 101.376 62.2668C102.438 68.6384 103.121 75.8822 103.424 83.9984C103.803 92.1145 103.917 98.5619 103.765 103.341C103.689 108.043 103.462 115.325 103.083 125.186C112.64 123.745 121.325 123.29 129.138 123.821ZM70.0871 132.923C80.6305 129.813 89.8465 127.537 97.7351 126.096C98.1902 117.373 98.3799 107.626 98.304 96.8553C98.304 86.0843 97.811 76.3753 96.8249 67.7281C96.7491 67.5006 96.6353 66.7041 96.4836 65.3388C96.4077 63.9735 96.2939 62.7598 96.1422 61.6979C95.9905 60.636 95.8009 59.4224 95.5734 58.057C95.3458 56.6917 94.9665 55.5539 94.4356 54.6437C93.9805 53.7335 93.4495 53.1646 92.8427 52.937C90.4154 51.7993 85.9781 55.5539 79.5307 64.201C75.3588 69.8141 71.3387 76.3753 67.4702 83.8846C63.6018 91.3939 60.4919 97.993 58.1405 103.682C55.8649 109.371 53.1342 116.577 49.9485 125.3C47.9005 130.837 45.9662 136.336 44.1458 141.797C52.1861 138.536 60.8332 135.578 70.0871 132.923Z" fill="#161616"/>
<path d="M218.017 105.616C215.741 114.946 213.39 125.338 210.963 136.791C210.735 138.081 210.204 140.47 209.37 143.959C208.611 147.373 208.004 150.141 207.549 152.265C207.17 154.313 206.791 156.816 206.412 159.774C206.032 162.733 205.956 165.463 206.184 167.966C206.412 170.545 206.905 172.935 207.663 175.134C209.484 180.444 212.935 184.502 218.017 187.309C223.099 190.191 228.219 190.646 233.377 188.674C234.363 188.295 235.235 188.408 235.994 189.015C236.752 189.698 237.094 190.532 237.018 191.518C237.018 192.504 236.525 193.187 235.539 193.566C230.684 195.463 226.095 195.804 221.772 194.59C217.524 193.453 213.807 191.367 210.621 188.333C207.436 185.374 204.97 181.696 203.226 177.296C201.557 172.897 200.836 168.421 201.064 163.87C201.216 160.76 201.595 157.271 202.202 153.403C202.809 149.459 203.302 146.5 203.681 144.528C204.136 142.48 204.97 138.801 206.184 133.492C207.398 128.106 208.118 125.034 208.346 124.276C208.649 122.91 209.597 118.89 211.19 112.215C208.156 115.098 199.85 122.493 186.273 134.402C184.604 135.919 179.75 140.053 171.709 146.804C163.745 153.555 157.715 158.864 153.619 162.733C151.343 171.304 149.143 178.472 147.02 184.237C146.944 184.464 146.678 185.223 146.223 186.512C145.768 187.802 145.465 188.636 145.313 189.015C145.161 189.47 144.858 190.229 144.403 191.291C143.948 192.429 143.568 193.301 143.265 193.908C142.961 194.515 142.544 195.235 142.013 196.069C141.558 196.904 141.065 197.624 140.534 198.231C140.079 198.914 139.548 199.521 138.941 200.052C135.149 203.617 132.153 203.351 129.953 199.255C128.208 195.994 127.639 192.239 128.246 187.991C128.398 187.157 128.588 186.436 128.815 185.829C131.697 177.865 138.486 169.104 149.181 159.547C150.395 155.147 151.988 148.852 153.96 140.66C155.932 132.468 157.184 127.386 157.715 125.413C158.397 122.531 160.066 116.691 162.721 107.892C165.452 99.0929 167.386 91.6594 168.524 85.5912C169.737 79.4473 170.192 73.3791 169.889 67.3868C169.585 59.6499 167.879 54.7195 164.769 52.5957C163.783 51.913 162.683 51.4579 161.469 51.2304C160.332 51.0028 159.156 51.0028 157.942 51.2304C156.804 51.3821 155.629 51.6855 154.415 52.1406C153.201 52.5957 152.102 53.1267 151.116 53.7335C150.129 54.2644 149.181 54.8712 148.271 55.5539C142.961 59.3465 138.828 64.3148 135.869 70.4588C132.987 76.6028 132.039 82.7089 133.025 88.777C133.177 89.839 132.873 90.6733 132.115 91.2801C131.28 91.8111 130.408 91.9249 129.498 91.6215C128.512 91.3181 127.943 90.6354 127.791 89.5735C127.184 86.0843 127.336 82.2158 128.246 77.9681C129.081 73.6446 130.56 69.5107 132.684 65.5664C134.807 61.5462 137.311 57.9433 140.193 54.7575C143.151 51.4958 146.564 49.0686 150.433 47.4757C154.377 45.807 158.359 45.3518 162.38 46.1104C165.717 46.7172 168.41 48.1584 170.458 50.4339C172.582 52.6336 173.947 55.4401 174.554 58.8535C175.236 62.191 175.616 65.6801 175.692 69.321C175.767 72.8861 175.464 76.7166 174.781 80.8126C174.099 84.9086 173.416 88.3978 172.733 91.2801C172.051 94.0867 171.33 96.8173 170.572 99.4721C168.22 107.285 163.366 125.338 156.008 153.63C160.863 149.534 163.707 147.107 164.541 146.349C166.058 144.983 169.282 142.139 174.212 137.815C179.219 133.492 182.822 130.344 185.021 128.372C187.297 126.4 190.369 123.669 194.237 120.18C198.106 116.615 201.595 113.353 204.705 110.395C207.815 107.437 210.887 104.44 213.921 101.406C215.514 94.959 216.917 89.6872 218.131 85.5912C221.772 72.6206 224.995 62.8357 227.802 56.2366C228.484 54.7195 228.94 53.6955 229.167 53.1646C229.395 52.5578 229.85 51.5717 230.532 50.2064C231.291 48.841 231.936 47.817 232.467 47.1344C233.074 46.4517 233.832 45.7311 234.742 44.9726C235.652 44.1382 236.639 43.5314 237.7 43.1521C239.445 42.5453 241.038 42.5074 242.479 43.0384C243.996 43.5693 245.248 44.4416 246.234 45.6552C247.296 46.8689 248.092 48.3101 248.623 49.9788C250.823 56.9572 248.775 65.5664 242.479 75.8064C236.714 85.212 228.56 95.1486 218.017 105.616ZM137.007 193.908C138.145 192.163 139.586 189.053 141.331 184.578C142.924 180.33 144.479 175.665 145.996 170.583C143.037 173.845 140.534 176.841 138.486 179.572C132.418 187.764 130.977 193.377 134.163 196.411C134.542 196.79 134.883 196.79 135.187 196.411C135.49 196.107 136.097 195.273 137.007 193.908ZM230.532 64.0872C227.195 73.0378 224.047 82.8985 221.089 93.6695C223.44 91.1664 224.73 89.7631 224.957 89.4597C225.109 89.308 225.906 88.4357 227.347 86.8428C228.864 85.1741 229.85 84.0363 230.305 83.4295C230.836 82.8227 231.822 81.647 233.263 79.9024C234.78 78.1578 235.842 76.8304 236.449 75.9201C237.132 74.9341 238.042 73.5687 239.18 71.8241C240.393 70.0795 241.228 68.6384 241.683 67.5006C242.214 66.287 242.783 64.8837 243.389 63.2908C244.072 61.6221 244.451 60.143 244.527 58.8535C244.679 57.564 244.679 56.2366 244.527 54.8713C244.375 53.4301 243.996 52.1027 243.389 50.889C240.735 45.5035 237.169 48.0446 232.694 58.5121C232.012 60.0292 231.291 61.8117 230.532 63.8597V64.0872Z" fill="#161616"/>
<path d="M129.138 123.821C130.2 123.896 130.882 124.389 131.186 125.3C131.565 126.21 131.489 127.12 130.958 128.03C130.427 128.865 129.631 129.244 128.569 129.168C120.908 128.561 112.337 129.016 102.855 130.533C102.021 155.565 100.39 181.203 97.9627 207.447C97.8868 208.585 97.3559 209.306 96.3698 209.609C95.4596 209.988 94.5873 209.875 93.7529 209.268C92.9185 208.737 92.5772 207.94 92.7289 206.878C95.0045 181.316 96.5974 156.171 97.5076 131.444C90.6051 132.809 82.5268 134.819 73.2729 137.474C62.0468 140.66 51.6172 144.301 41.984 148.397C36.6744 165.084 32.5784 180.937 29.696 195.956C29.3926 197.473 28.4445 198.231 26.8516 198.231C25.3345 198.231 24.5002 197.549 24.3485 196.183C24.3485 195.956 24.3864 195.69 24.4622 195.387C27.1929 180.975 30.8338 166.298 35.3849 151.355C25.6 155.982 16.8391 161.026 9.10224 166.487C8.19201 167.094 7.28179 167.17 6.37157 166.715C5.38549 166.26 4.85453 165.615 4.77868 164.781C4.62698 163.946 4.93038 163.15 5.6889 162.391C15.0187 155.792 25.6379 149.838 37.5467 144.528C41.7185 131.709 46.3834 119.042 51.5413 106.526C51.6931 106.071 52.4136 104.251 53.7031 101.065C55.0685 97.8034 55.9028 95.7554 56.2062 94.921C56.5855 94.0867 57.4199 92.1904 58.7093 89.2321C59.9988 86.1981 60.947 84.1121 61.5538 82.9744C62.1606 81.7607 63.1088 79.8265 64.3982 77.1717C65.7636 74.5169 66.9014 72.5068 67.8116 71.1415C68.7218 69.7761 69.8596 67.9936 71.2249 65.7939C72.6661 63.5942 73.9935 61.8117 75.2071 60.4464C76.4208 59.0052 77.7861 57.4881 79.3031 55.8953C80.8202 54.3024 82.3372 52.8991 83.8542 51.6855C86.5091 49.5616 88.8605 48.348 90.9085 48.0446C93.0323 47.7412 94.7769 48.2721 96.1422 49.6375C97.5076 50.927 98.6074 52.6336 99.4418 54.7575C100.276 56.8055 100.921 59.3086 101.376 62.2668C102.438 68.6384 103.121 75.8822 103.424 83.9984C103.803 92.1145 103.917 98.5619 103.765 103.341C103.689 108.043 103.462 115.325 103.083 125.186C112.64 123.745 121.325 123.29 129.138 123.821ZM70.0871 132.923C80.6305 129.813 89.8465 127.537 97.7351 126.096C98.1902 117.373 98.3799 107.626 98.304 96.8553C98.304 86.0843 97.811 76.3753 96.8249 67.7281C96.7491 67.5006 96.6353 66.7041 96.4836 65.3388C96.4077 63.9735 96.2939 62.7598 96.1422 61.6979C95.9905 60.636 95.8009 59.4224 95.5734 58.057C95.3458 56.6917 94.9665 55.5539 94.4356 54.6437C93.9805 53.7335 93.4495 53.1646 92.8427 52.937C90.4154 51.7993 85.9781 55.5539 79.5307 64.201C75.3588 69.8141 71.3387 76.3753 67.4702 83.8846C63.6018 91.3939 60.4919 97.993 58.1405 103.682C55.8649 109.371 53.1342 116.577 49.9485 125.3C47.9005 130.837 45.9662 136.336 44.1458 141.797C52.1861 138.536 60.8332 135.578 70.0871 132.923Z" stroke="#161616"/>
<path d="M218.017 105.616C215.741 114.946 213.39 125.338 210.963 136.791C210.735 138.081 210.204 140.47 209.37 143.959C208.611 147.373 208.004 150.141 207.549 152.265C207.17 154.313 206.791 156.816 206.412 159.774C206.032 162.733 205.956 165.463 206.184 167.966C206.412 170.545 206.905 172.935 207.663 175.134C209.484 180.444 212.935 184.502 218.017 187.309C223.099 190.191 228.219 190.646 233.377 188.674C234.363 188.295 235.235 188.408 235.994 189.015C236.752 189.698 237.094 190.532 237.018 191.518C237.018 192.504 236.525 193.187 235.539 193.566C230.684 195.463 226.095 195.804 221.772 194.59C217.524 193.453 213.807 191.367 210.621 188.333C207.436 185.374 204.97 181.696 203.226 177.296C201.557 172.897 200.836 168.421 201.064 163.87C201.216 160.76 201.595 157.271 202.202 153.403C202.809 149.459 203.302 146.5 203.681 144.528C204.136 142.48 204.97 138.801 206.184 133.492C207.398 128.106 208.118 125.034 208.346 124.276C208.649 122.91 209.597 118.89 211.19 112.215C208.156 115.098 199.85 122.493 186.273 134.402C184.604 135.919 179.75 140.053 171.709 146.804C163.745 153.555 157.715 158.864 153.619 162.733C151.343 171.304 149.143 178.472 147.02 184.237C146.944 184.464 146.678 185.223 146.223 186.512C145.768 187.802 145.465 188.636 145.313 189.015C145.161 189.47 144.858 190.229 144.403 191.291C143.948 192.429 143.568 193.301 143.265 193.908C142.961 194.515 142.544 195.235 142.013 196.069C141.558 196.904 141.065 197.624 140.534 198.231C140.079 198.914 139.548 199.521 138.941 200.052C135.149 203.617 132.153 203.351 129.953 199.255C128.208 195.994 127.639 192.239 128.246 187.991C128.398 187.157 128.588 186.436 128.815 185.829C131.697 177.865 138.486 169.104 149.181 159.547C150.395 155.147 151.988 148.852 153.96 140.66C155.932 132.468 157.184 127.386 157.715 125.413C158.397 122.531 160.066 116.691 162.721 107.892C165.452 99.0929 167.386 91.6594 168.524 85.5912C169.737 79.4473 170.192 73.3791 169.889 67.3868C169.585 59.6499 167.879 54.7195 164.769 52.5957C163.783 51.913 162.683 51.4579 161.469 51.2304C160.332 51.0028 159.156 51.0028 157.942 51.2304C156.804 51.3821 155.629 51.6855 154.415 52.1406C153.201 52.5957 152.102 53.1267 151.116 53.7335C150.129 54.2644 149.181 54.8712 148.271 55.5539C142.961 59.3465 138.828 64.3148 135.869 70.4588C132.987 76.6028 132.039 82.7089 133.025 88.777C133.177 89.839 132.873 90.6733 132.115 91.2801C131.28 91.8111 130.408 91.9249 129.498 91.6215C128.512 91.3181 127.943 90.6354 127.791 89.5735C127.184 86.0843 127.336 82.2158 128.246 77.9681C129.081 73.6446 130.56 69.5107 132.684 65.5664C134.807 61.5462 137.311 57.9433 140.193 54.7575C143.151 51.4958 146.564 49.0686 150.433 47.4757C154.377 45.807 158.359 45.3518 162.38 46.1104C165.717 46.7172 168.41 48.1584 170.458 50.4339C172.582 52.6336 173.947 55.4401 174.554 58.8535C175.236 62.191 175.616 65.6801 175.692 69.321C175.767 72.8861 175.464 76.7166 174.781 80.8126C174.099 84.9086 173.416 88.3978 172.733 91.2801C172.051 94.0867 171.33 96.8173 170.572 99.4721C168.22 107.285 163.366 125.338 156.008 153.63C160.863 149.534 163.707 147.107 164.541 146.349C166.058 144.983 169.282 142.139 174.212 137.815C179.219 133.492 182.822 130.344 185.021 128.372C187.297 126.4 190.369 123.669 194.237 120.18C198.106 116.615 201.595 113.353 204.705 110.395C207.815 107.437 210.887 104.44 213.921 101.406C215.514 94.959 216.917 89.6872 218.131 85.5912C221.772 72.6206 224.995 62.8357 227.802 56.2366C228.484 54.7195 228.94 53.6955 229.167 53.1646C229.395 52.5578 229.85 51.5717 230.532 50.2064C231.291 48.841 231.936 47.817 232.467 47.1344C233.074 46.4517 233.832 45.7311 234.742 44.9726C235.652 44.1382 236.639 43.5314 237.7 43.1521C239.445 42.5453 241.038 42.5074 242.479 43.0384C243.996 43.5693 245.248 44.4416 246.234 45.6552C247.296 46.8689 248.092 48.3101 248.623 49.9788C250.823 56.9572 248.775 65.5664 242.479 75.8064C236.714 85.212 228.56 95.1486 218.017 105.616ZM137.007 193.908C138.145 192.163 139.586 189.053 141.331 184.578C142.924 180.33 144.479 175.665 145.996 170.583C143.037 173.845 140.534 176.841 138.486 179.572C132.418 187.764 130.977 193.377 134.163 196.411C134.542 196.79 134.883 196.79 135.187 196.411C135.49 196.107 136.097 195.273 137.007 193.908ZM230.532 64.0872C227.195 73.0378 224.047 82.8985 221.089 93.6695C223.44 91.1664 224.73 89.7631 224.957 89.4597C225.109 89.308 225.906 88.4357 227.347 86.8428C228.864 85.1741 229.85 84.0363 230.305 83.4295C230.836 82.8227 231.822 81.647 233.263 79.9024C234.78 78.1578 235.842 76.8304 236.449 75.9201C237.132 74.9341 238.042 73.5687 239.18 71.8241C240.393 70.0795 241.228 68.6384 241.683 67.5006C242.214 66.287 242.783 64.8837 243.389 63.2908C244.072 61.6221 244.451 60.143 244.527 58.8535C244.679 57.564 244.679 56.2366 244.527 54.8713C244.375 53.4301 243.996 52.1027 243.389 50.889C240.735 45.5035 237.169 48.0446 232.694 58.5121C232.012 60.0292 231.291 61.8117 230.532 63.8597V64.0872Z" stroke="#161616"/>
</svg>
