<svg width="54" height="54" viewBox="0 0 54 54" fill="none" xmlns="http://www.w3.org/2000/svg">
<path d="M27.24 26.1184C27.464 26.1344 27.608 26.2384 27.672 26.4304C27.752 26.6224 27.736 26.8144 27.624 27.0064C27.512 27.1824 27.344 27.2624 27.12 27.2464C25.504 27.1184 23.696 27.2144 21.696 27.5344C21.52 32.8144 21.176 38.2224 20.664 43.7584C20.648 43.9984 20.536 44.1504 20.328 44.2144C20.136 44.2944 19.952 44.2704 19.776 44.1424C19.6 44.0304 19.528 43.8624 19.56 43.6384C20.04 38.2464 20.376 32.9424 20.568 27.7264C19.112 28.0144 17.408 28.4384 15.456 28.9984C13.088 29.6704 10.888 30.4384 8.856 31.3024C7.736 34.8224 6.872 38.1664 6.264 41.3344C6.2 41.6544 6 41.8144 5.664 41.8144C5.344 41.8144 5.168 41.6704 5.136 41.3824C5.136 41.3344 5.144 41.2784 5.16 41.2144C5.736 38.1744 6.504 35.0784 7.464 31.9264C5.4 32.9024 3.552 33.9664 1.92 35.1184C1.728 35.2464 1.536 35.2624 1.344 35.1664C1.136 35.0704 1.024 34.9344 1.008 34.7584C0.976 34.5824 1.04 34.4144 1.2 34.2544C3.168 32.8624 5.408 31.6064 7.92 30.4864C8.8 27.7824 9.784 25.1104 10.872 22.4704C10.904 22.3744 11.056 21.9904 11.328 21.3184C11.616 20.6304 11.792 20.1984 11.856 20.0224C11.936 19.8464 12.112 19.4464 12.384 18.8224C12.656 18.1824 12.856 17.7424 12.984 17.5024C13.112 17.2464 13.312 16.8384 13.584 16.2784C13.872 15.7184 14.112 15.2944 14.304 15.0064C14.496 14.7184 14.736 14.3424 15.024 13.8784C15.328 13.4144 15.608 13.0384 15.864 12.7504C16.12 12.4464 16.408 12.1264 16.728 11.7904C17.048 11.4544 17.368 11.1584 17.688 10.9024C18.248 10.4544 18.744 10.1984 19.176 10.1344C19.624 10.0704 19.992 10.1824 20.28 10.4704C20.568 10.7424 20.8 11.1024 20.976 11.5504C21.152 11.9824 21.288 12.5104 21.384 13.1344C21.608 14.4784 21.752 16.0064 21.816 17.7184C21.896 19.4304 21.92 20.7904 21.888 21.7984C21.872 22.7904 21.824 24.3264 21.744 26.4064C23.76 26.1024 25.592 26.0064 27.24 26.1184ZM14.784 28.0384C17.008 27.3824 18.952 26.9024 20.616 26.5984C20.712 24.7584 20.752 22.7024 20.736 20.4304C20.736 18.1584 20.632 16.1104 20.424 14.2864C20.408 14.2384 20.384 14.0704 20.352 13.7824C20.336 13.4944 20.312 13.2384 20.28 13.0144C20.248 12.7904 20.208 12.5344 20.16 12.2464C20.112 11.9584 20.032 11.7184 19.92 11.5264C19.824 11.3344 19.712 11.2144 19.584 11.1664C19.072 10.9264 18.136 11.7184 16.776 13.5424C15.896 14.7264 15.048 16.1104 14.232 17.6944C13.416 19.2784 12.76 20.6704 12.264 21.8704C11.784 23.0704 11.208 24.5904 10.536 26.4304C10.104 27.5984 9.696 28.7584 9.312 29.9104C11.008 29.2224 12.832 28.5984 14.784 28.0384Z" fill="#161616"/>
<path d="M45.9879 22.2784C45.5079 24.2464 45.0119 26.4384 44.4999 28.8544C44.4519 29.1264 44.3399 29.6304 44.1639 30.3664C44.0039 31.0864 43.8759 31.6704 43.7799 32.1184C43.6999 32.5504 43.6199 33.0784 43.5399 33.7024C43.4599 34.3264 43.4439 34.9024 43.4919 35.4304C43.5399 35.9744 43.6439 36.4784 43.8039 36.9424C44.1879 38.0624 44.9159 38.9184 45.9879 39.5104C47.0599 40.1184 48.1399 40.2144 49.2279 39.7984C49.4359 39.7184 49.6199 39.7424 49.7799 39.8704C49.9399 40.0144 50.0119 40.1904 49.9959 40.3984C49.9959 40.6064 49.8919 40.7504 49.6839 40.8304C48.6599 41.2304 47.6919 41.3024 46.7799 41.0464C45.8839 40.8064 45.0999 40.3664 44.4279 39.7264C43.7559 39.1024 43.2359 38.3264 42.8679 37.3984C42.5159 36.4704 42.3639 35.5264 42.4119 34.5664C42.4439 33.9104 42.5239 33.1744 42.6519 32.3584C42.7799 31.5264 42.8839 30.9024 42.9639 30.4864C43.0599 30.0544 43.2359 29.2784 43.4919 28.1584C43.7479 27.0224 43.8999 26.3744 43.9479 26.2144C44.0119 25.9264 44.2119 25.0784 44.5479 23.6704C43.9079 24.2784 42.1559 25.8384 39.2919 28.3504C38.9399 28.6704 37.9159 29.5424 36.2199 30.9664C34.5399 32.3904 33.2679 33.5104 32.4039 34.3264C31.9239 36.1344 31.4599 37.6464 31.0119 38.8624C30.9959 38.9104 30.9399 39.0704 30.8439 39.3424C30.7479 39.6144 30.6839 39.7904 30.6519 39.8704C30.6199 39.9664 30.5559 40.1264 30.4599 40.3504C30.3639 40.5904 30.2839 40.7744 30.2199 40.9024C30.1559 41.0304 30.0679 41.1824 29.9559 41.3584C29.8599 41.5344 29.7559 41.6864 29.6439 41.8144C29.5479 41.9584 29.4359 42.0864 29.3079 42.1984C28.5079 42.9504 27.8759 42.8944 27.4119 42.0304C27.0439 41.3424 26.9239 40.5504 27.0519 39.6544C27.0839 39.4784 27.1239 39.3264 27.1719 39.1984C27.7799 37.5184 29.2119 35.6704 31.4679 33.6544C31.7239 32.7264 32.0599 31.3984 32.4759 29.6704C32.8919 27.9424 33.1559 26.8704 33.2679 26.4544C33.4119 25.8464 33.7639 24.6144 34.3239 22.7584C34.8999 20.9024 35.3079 19.3344 35.5479 18.0544C35.8039 16.7584 35.8999 15.4784 35.8359 14.2144C35.7719 12.5824 35.4119 11.5424 34.7559 11.0944C34.5479 10.9504 34.3159 10.8544 34.0599 10.8064C33.8199 10.7584 33.5719 10.7584 33.3159 10.8064C33.0759 10.8384 32.8279 10.9024 32.5719 10.9984C32.3159 11.0944 32.0839 11.2064 31.8759 11.3344C31.6679 11.4464 31.4679 11.5744 31.2759 11.7184C30.1559 12.5184 29.2839 13.5664 28.6599 14.8624C28.0519 16.1584 27.8519 17.4464 28.0599 18.7264C28.0919 18.9504 28.0279 19.1264 27.8679 19.2544C27.6919 19.3664 27.5079 19.3904 27.3159 19.3264C27.1079 19.2624 26.9879 19.1184 26.9559 18.8944C26.8279 18.1584 26.8599 17.3424 27.0519 16.4464C27.2279 15.5344 27.5399 14.6624 27.9879 13.8304C28.4359 12.9824 28.9639 12.2224 29.5719 11.5504C30.1959 10.8624 30.9159 10.3504 31.7319 10.0144C32.5639 9.6624 33.4039 9.5664 34.2519 9.7264C34.9559 9.8544 35.5239 10.1584 35.9559 10.6384C36.4039 11.1024 36.6919 11.6944 36.8199 12.4144C36.9639 13.1184 37.0439 13.8544 37.0599 14.6224C37.0759 15.3744 37.0119 16.1824 36.8679 17.0464C36.7239 17.9104 36.5799 18.6464 36.4359 19.2544C36.2919 19.8464 36.1399 20.4224 35.9799 20.9824C35.4839 22.6304 34.4599 26.4384 32.9079 32.4064C33.9319 31.5424 34.5319 31.0304 34.7079 30.8704C35.0279 30.5824 35.7079 29.9824 36.7479 29.0704C37.8039 28.1584 38.5639 27.4944 39.0279 27.0784C39.5079 26.6624 40.1559 26.0864 40.9719 25.3504C41.7879 24.5984 42.5239 23.9104 43.1799 23.2864C43.8359 22.6624 44.4839 22.0304 45.1239 21.3904C45.4599 20.0304 45.7559 18.9184 46.0119 18.0544C46.7799 15.3184 47.4599 13.2544 48.0519 11.8624C48.1959 11.5424 48.2919 11.3264 48.3399 11.2144C48.3879 11.0864 48.4839 10.8784 48.6279 10.5904C48.7879 10.3024 48.9239 10.0864 49.0359 9.9424C49.1639 9.7984 49.3239 9.6464 49.5159 9.4864C49.7079 9.3104 49.9159 9.1824 50.1399 9.1024C50.5079 8.9744 50.8439 8.9664 51.1479 9.0784C51.4679 9.1904 51.7319 9.3744 51.9399 9.6304C52.1639 9.8864 52.3319 10.1904 52.4439 10.5424C52.9079 12.0144 52.4759 13.8304 51.1479 15.9904C49.9319 17.9744 48.2119 20.0704 45.9879 22.2784ZM28.8999 40.9024C29.1399 40.5344 29.4439 39.8784 29.8119 38.9344C30.1479 38.0384 30.4759 37.0544 30.7959 35.9824C30.1719 36.6704 29.6439 37.3024 29.2119 37.8784C27.9319 39.6064 27.6279 40.7904 28.2999 41.4304C28.3799 41.5104 28.4519 41.5104 28.5159 41.4304C28.5799 41.3664 28.7079 41.1904 28.8999 40.9024ZM48.6279 13.5184C47.9239 15.4064 47.2599 17.4864 46.6359 19.7584C47.1319 19.2304 47.4039 18.9344 47.4519 18.8704C47.4839 18.8384 47.6519 18.6544 47.9559 18.3184C48.2759 17.9664 48.4839 17.7264 48.5799 17.5984C48.6919 17.4704 48.8999 17.2224 49.2039 16.8544C49.5239 16.4864 49.7479 16.2064 49.8759 16.0144C50.0199 15.8064 50.2119 15.5184 50.4519 15.1504C50.7079 14.7824 50.8839 14.4784 50.9799 14.2384C51.0919 13.9824 51.2119 13.6864 51.3399 13.3504C51.4839 12.9984 51.5639 12.6864 51.5799 12.4144C51.6119 12.1424 51.6119 11.8624 51.5799 11.5744C51.5479 11.2704 51.4679 10.9904 51.3399 10.7344C50.7799 9.5984 50.0279 10.1344 49.0839 12.3424C48.9399 12.6624 48.7879 13.0384 48.6279 13.4704V13.5184Z" fill="#161616"/>
<path d="M27.24 26.1184C27.464 26.1344 27.608 26.2384 27.672 26.4304C27.752 26.6224 27.736 26.8144 27.624 27.0064C27.512 27.1824 27.344 27.2624 27.12 27.2464C25.504 27.1184 23.696 27.2144 21.696 27.5344C21.52 32.8144 21.176 38.2224 20.664 43.7584C20.648 43.9984 20.536 44.1504 20.328 44.2144C20.136 44.2944 19.952 44.2704 19.776 44.1424C19.6 44.0304 19.528 43.8624 19.56 43.6384C20.04 38.2464 20.376 32.9424 20.568 27.7264C19.112 28.0144 17.408 28.4384 15.456 28.9984C13.088 29.6704 10.888 30.4384 8.856 31.3024C7.736 34.8224 6.872 38.1664 6.264 41.3344C6.2 41.6544 6 41.8144 5.664 41.8144C5.344 41.8144 5.168 41.6704 5.136 41.3824C5.136 41.3344 5.144 41.2784 5.16 41.2144C5.736 38.1744 6.504 35.0784 7.464 31.9264C5.4 32.9024 3.552 33.9664 1.92 35.1184C1.728 35.2464 1.536 35.2624 1.344 35.1664C1.136 35.0704 1.024 34.9344 1.008 34.7584C0.976 34.5824 1.04 34.4144 1.2 34.2544C3.168 32.8624 5.408 31.6064 7.92 30.4864C8.8 27.7824 9.784 25.1104 10.872 22.4704C10.904 22.3744 11.056 21.9904 11.328 21.3184C11.616 20.6304 11.792 20.1984 11.856 20.0224C11.936 19.8464 12.112 19.4464 12.384 18.8224C12.656 18.1824 12.856 17.7424 12.984 17.5024C13.112 17.2464 13.312 16.8384 13.584 16.2784C13.872 15.7184 14.112 15.2944 14.304 15.0064C14.496 14.7184 14.736 14.3424 15.024 13.8784C15.328 13.4144 15.608 13.0384 15.864 12.7504C16.12 12.4464 16.408 12.1264 16.728 11.7904C17.048 11.4544 17.368 11.1584 17.688 10.9024C18.248 10.4544 18.744 10.1984 19.176 10.1344C19.624 10.0704 19.992 10.1824 20.28 10.4704C20.568 10.7424 20.8 11.1024 20.976 11.5504C21.152 11.9824 21.288 12.5104 21.384 13.1344C21.608 14.4784 21.752 16.0064 21.816 17.7184C21.896 19.4304 21.92 20.7904 21.888 21.7984C21.872 22.7904 21.824 24.3264 21.744 26.4064C23.76 26.1024 25.592 26.0064 27.24 26.1184ZM14.784 28.0384C17.008 27.3824 18.952 26.9024 20.616 26.5984C20.712 24.7584 20.752 22.7024 20.736 20.4304C20.736 18.1584 20.632 16.1104 20.424 14.2864C20.408 14.2384 20.384 14.0704 20.352 13.7824C20.336 13.4944 20.312 13.2384 20.28 13.0144C20.248 12.7904 20.208 12.5344 20.16 12.2464C20.112 11.9584 20.032 11.7184 19.92 11.5264C19.824 11.3344 19.712 11.2144 19.584 11.1664C19.072 10.9264 18.136 11.7184 16.776 13.5424C15.896 14.7264 15.048 16.1104 14.232 17.6944C13.416 19.2784 12.76 20.6704 12.264 21.8704C11.784 23.0704 11.208 24.5904 10.536 26.4304C10.104 27.5984 9.696 28.7584 9.312 29.9104C11.008 29.2224 12.832 28.5984 14.784 28.0384Z" stroke="#161616"/>
<path d="M45.9879 22.2784C45.5079 24.2464 45.0119 26.4384 44.4999 28.8544C44.4519 29.1264 44.3399 29.6304 44.1639 30.3664C44.0039 31.0864 43.8759 31.6704 43.7799 32.1184C43.6999 32.5504 43.6199 33.0784 43.5399 33.7024C43.4599 34.3264 43.4439 34.9024 43.4919 35.4304C43.5399 35.9744 43.6439 36.4784 43.8039 36.9424C44.1879 38.0624 44.9159 38.9184 45.9879 39.5104C47.0599 40.1184 48.1399 40.2144 49.2279 39.7984C49.4359 39.7184 49.6199 39.7424 49.7799 39.8704C49.9399 40.0144 50.0119 40.1904 49.9959 40.3984C49.9959 40.6064 49.8919 40.7504 49.6839 40.8304C48.6599 41.2304 47.6919 41.3024 46.7799 41.0464C45.8839 40.8064 45.0999 40.3664 44.4279 39.7264C43.7559 39.1024 43.2359 38.3264 42.8679 37.3984C42.5159 36.4704 42.3639 35.5264 42.4119 34.5664C42.4439 33.9104 42.5239 33.1744 42.6519 32.3584C42.7799 31.5264 42.8839 30.9024 42.9639 30.4864C43.0599 30.0544 43.2359 29.2784 43.4919 28.1584C43.7479 27.0224 43.8999 26.3744 43.9479 26.2144C44.0119 25.9264 44.2119 25.0784 44.5479 23.6704C43.9079 24.2784 42.1559 25.8384 39.2919 28.3504C38.9399 28.6704 37.9159 29.5424 36.2199 30.9664C34.5399 32.3904 33.2679 33.5104 32.4039 34.3264C31.9239 36.1344 31.4599 37.6464 31.0119 38.8624C30.9959 38.9104 30.9399 39.0704 30.8439 39.3424C30.7479 39.6144 30.6839 39.7904 30.6519 39.8704C30.6199 39.9664 30.5559 40.1264 30.4599 40.3504C30.3639 40.5904 30.2839 40.7744 30.2199 40.9024C30.1559 41.0304 30.0679 41.1824 29.9559 41.3584C29.8599 41.5344 29.7559 41.6864 29.6439 41.8144C29.5479 41.9584 29.4359 42.0864 29.3079 42.1984C28.5079 42.9504 27.8759 42.8944 27.4119 42.0304C27.0439 41.3424 26.9239 40.5504 27.0519 39.6544C27.0839 39.4784 27.1239 39.3264 27.1719 39.1984C27.7799 37.5184 29.2119 35.6704 31.4679 33.6544C31.7239 32.7264 32.0599 31.3984 32.4759 29.6704C32.8919 27.9424 33.1559 26.8704 33.2679 26.4544C33.4119 25.8464 33.7639 24.6144 34.3239 22.7584C34.8999 20.9024 35.3079 19.3344 35.5479 18.0544C35.8039 16.7584 35.8999 15.4784 35.8359 14.2144C35.7719 12.5824 35.4119 11.5424 34.7559 11.0944C34.5479 10.9504 34.3159 10.8544 34.0599 10.8064C33.8199 10.7584 33.5719 10.7584 33.3159 10.8064C33.0759 10.8384 32.8279 10.9024 32.5719 10.9984C32.3159 11.0944 32.0839 11.2064 31.8759 11.3344C31.6679 11.4464 31.4679 11.5744 31.2759 11.7184C30.1559 12.5184 29.2839 13.5664 28.6599 14.8624C28.0519 16.1584 27.8519 17.4464 28.0599 18.7264C28.0919 18.9504 28.0279 19.1264 27.8679 19.2544C27.6919 19.3664 27.5079 19.3904 27.3159 19.3264C27.1079 19.2624 26.9879 19.1184 26.9559 18.8944C26.8279 18.1584 26.8599 17.3424 27.0519 16.4464C27.2279 15.5344 27.5399 14.6624 27.9879 13.8304C28.4359 12.9824 28.9639 12.2224 29.5719 11.5504C30.1959 10.8624 30.9159 10.3504 31.7319 10.0144C32.5639 9.6624 33.4039 9.5664 34.2519 9.7264C34.9559 9.8544 35.5239 10.1584 35.9559 10.6384C36.4039 11.1024 36.6919 11.6944 36.8199 12.4144C36.9639 13.1184 37.0439 13.8544 37.0599 14.6224C37.0759 15.3744 37.0119 16.1824 36.8679 17.0464C36.7239 17.9104 36.5799 18.6464 36.4359 19.2544C36.2919 19.8464 36.1399 20.4224 35.9799 20.9824C35.4839 22.6304 34.4599 26.4384 32.9079 32.4064C33.9319 31.5424 34.5319 31.0304 34.7079 30.8704C35.0279 30.5824 35.7079 29.9824 36.7479 29.0704C37.8039 28.1584 38.5639 27.4944 39.0279 27.0784C39.5079 26.6624 40.1559 26.0864 40.9719 25.3504C41.7879 24.5984 42.5239 23.9104 43.1799 23.2864C43.8359 22.6624 44.4839 22.0304 45.1239 21.3904C45.4599 20.0304 45.7559 18.9184 46.0119 18.0544C46.7799 15.3184 47.4599 13.2544 48.0519 11.8624C48.1959 11.5424 48.2919 11.3264 48.3399 11.2144C48.3879 11.0864 48.4839 10.8784 48.6279 10.5904C48.7879 10.3024 48.9239 10.0864 49.0359 9.9424C49.1639 9.7984 49.3239 9.6464 49.5159 9.4864C49.7079 9.3104 49.9159 9.1824 50.1399 9.1024C50.5079 8.9744 50.8439 8.9664 51.1479 9.0784C51.4679 9.1904 51.7319 9.3744 51.9399 9.6304C52.1639 9.8864 52.3319 10.1904 52.4439 10.5424C52.9079 12.0144 52.4759 13.8304 51.1479 15.9904C49.9319 17.9744 48.2119 20.0704 45.9879 22.2784ZM28.8999 40.9024C29.1399 40.5344 29.4439 39.8784 29.8119 38.9344C30.1479 38.0384 30.4759 37.0544 30.7959 35.9824C30.1719 36.6704 29.6439 37.3024 29.2119 37.8784C27.9319 39.6064 27.6279 40.7904 28.2999 41.4304C28.3799 41.5104 28.4519 41.5104 28.5159 41.4304C28.5799 41.3664 28.7079 41.1904 28.8999 40.9024ZM48.6279 13.5184C47.9239 15.4064 47.2599 17.4864 46.6359 19.7584C47.1319 19.2304 47.4039 18.9344 47.4519 18.8704C47.4839 18.8384 47.6519 18.6544 47.9559 18.3184C48.2759 17.9664 48.4839 17.7264 48.5799 17.5984C48.6919 17.4704 48.8999 17.2224 49.2039 16.8544C49.5239 16.4864 49.7479 16.2064 49.8759 16.0144C50.0199 15.8064 50.2119 15.5184 50.4519 15.1504C50.7079 14.7824 50.8839 14.4784 50.9799 14.2384C51.0919 13.9824 51.2119 13.6864 51.3399 13.3504C51.4839 12.9984 51.5639 12.6864 51.5799 12.4144C51.6119 12.1424 51.6119 11.8624 51.5799 11.5744C51.5479 11.2704 51.4679 10.9904 51.3399 10.7344C50.7799 9.5984 50.0279 10.1344 49.0839 12.3424C48.9399 12.6624 48.7879 13.0384 48.6279 13.4704V13.5184Z" stroke="#161616"/>
</svg>
