<svg width="13" height="15" viewBox="0 0 13 15" fill="none" xmlns="http://www.w3.org/2000/svg">
<path fill-rule="evenodd" clip-rule="evenodd" d="M3.75028 4.9891C3.75028 3.41934 4.95144 2.14318 6.42904 2.14318C7.90665 2.14318 9.10781 3.41934 9.10781 4.9891V6.42813H3.75028V4.9891ZM11.2508 6.42796V4.98893C11.2508 2.23837 9.08744 0 6.42903 0C3.77063 0 1.60726 2.23837 1.60726 4.98893V6.42796H0.5C0.223858 6.42796 0 6.65182 0 6.92796V14.5C0 14.7761 0.223858 15 0.5 15H12.3581C12.6342 15 12.8581 14.7761 12.8581 14.5V6.92796C12.8581 6.65182 12.6342 6.42796 12.3581 6.42796H11.2508Z" fill="#857258" fill-opacity="0.49"/>
</svg>
